<?xml version="1.0" encoding="utf-8"?>
<!-- Generator: Adobe Illustrator 26.0.2, SVG Export Plug-In . SVG Version: 6.00 Build 0)  -->
<svg version="1.1" id="Layer_1" xmlns="http://www.w3.org/2000/svg" xmlns:xlink="http://www.w3.org/1999/xlink" x="0px" y="0px"
	 viewBox="0 0 8775.3 1255.9" style="enable-background:new 0 0 8775.3 1255.9;" xml:space="preserve">
<style type="text/css">
	.st0{fill:#378B66;}
	.st1{fill:#348A65;}
</style>
<g>
	<path class="st0" d="M756.4,1255.9c-2.4-6.7-4.7-13.5-7.5-21.2c10.7-3,20.8-5.8,31.9-8.9c3.4,6.6,6.5,12.6,10.1,19.7
		c-8.3,2.4-15.6,4.3-22.8,6.6c-3.3,1-6.5,2.6-9.8,3.9C757.8,1255.9,757.1,1255.9,756.4,1255.9z"/>
	<path class="st0" d="M372.2,61.6c-8.9,4.5-16.2,8.3-23.9,12.2c0.9,2.9,1.6,5,2.5,7.7c-4.9,3.6-10,7.2-14.9,11.1
		c-2.8,2.2-5.6,4.3-5.4,8.9c0.1,2-2.4,4.3-4,6.3c-4.5,6.1-9.4,12-13.6,18.4c-1.9,2.8-2.4,6.6-4.3,12.3c6.9-3,11.7-4.8,16.3-7
		c20.3-9.7,41.6-11.7,63.4-7.2c28.6,5.9,42.3,26.3,50.1,53.9c-6.8-5.3-10.8-12-19.1-13.9c-0.5,4.6-0.9,8.5-1.5,13.4
		c-8.4-7.8-15.9-16.2-28.2-18.6c0.3,4.1,0.6,7.2,0.9,11.2c-8-2.1-15.4-4.1-24.2-6.5c1.5,5.9,2.5,10,3.8,15.1
		c-4.7-0.2-9-0.8-13.1-0.5c-6.9,0.6-14.1,0.8-20.5,3c-9.6,3.4-13.1,12.6-10.4,24.3c3-1.7,5.9-3.1,8.5-5
		c33.3-23.1,78.6-15.8,104.6,2.4c15.1,10.6,24.6,26.5,28.7,49c-4.6-6-9-11.7-14.7-19.1c-0.8,5.5-1.2,8.4-1.6,11.7
		c-17.6-20.3-20-22.1-32.3-23.9c-0.4,3.5-0.8,7-1.3,11.3c-18.6-7.2-36.9-12.3-54.9,1.4c2.1,0.2,4.2,0.4,6.3,0.6
		c8.3,0.7,16.7,0.8,24.8,2.2c26.8,4.6,44.3,20.4,52.9,45.9c2.6,7.7,4,15.8,4.8,23.9c-5-6.5-10-13-15.2-19.4c-0.9-1.1-2.8-1.5-5-2.5
		c-1.4,4.8-2.7,9-4.4,14.8c-7.1-9.2-11.3-19.5-22.5-24.4c-0.5,4.1-1,7.4-1.6,12.2c-11.8-14.2-22.1-28.8-42.1-30.9
		c3.9,8.3,3.9,8.3,15.1,10.9c1,3.3,2.2,7.1,3.3,10.8c1.1,3.8,2.1,7.7,3.3,12c2.7,0.7,5.5,1.4,8.3,2.1c1.5,6.8,2.9,13.3,4.5,20.2
		c3.9-0.4,7.3-0.8,11.6-1.3c2,10.8,4,21.2,6,32.2c2.7-0.7,5.1-1.3,8.6-2.1c2.1,9.6,4.1,19.1,6.4,29.5c3.1-1,5.8-1.9,9.1-3
		c1.7,9.9,3.3,19.2,5,28.6c2.9,0,5.1,0,7.8,0c0.8,9.7,1.6,19.3,2.5,29.5c2.5,0.6,5.3,1.2,8.8,2c0.5,9.1,1,18.4,1.5,28
		c2.8,0.6,5.3,1.1,9,1.9c0,9.3,0,18.9,0,28.5c3.3,0.6,5.5,1,8.7,1.6c-0.9,6.5-1.7,13-2.7,20.3c6,0.6,11.5,1.1,17,1.6
		c30.9,2.6,60.1,11.5,88.2,24.2c8.8,4,16.6,4.5,25.7,1c28.7-11,58.6-14.9,89.2-13.5c3.6,0.2,7.3,0,11.5,0c2.5-8.4,0-16.8-0.3-25.6
		c2.1-0.3,4-0.6,6.6-1c1.1-8.2,2.3-16.7,3.4-25.6c2.4,0.1,4.6,0.2,8,0.4c1.2-10.3,2.4-20.7,3.7-31.5c2.4,0.2,4.6,0.3,8.1,0.5
		c0.8-11.3,1.5-22.4,2.3-34.4c3.5,1.3,6.8,2.6,10.8,4.1c3.7-8.8,1.3-18.3,3.1-27.7c2.9,0.7,5.7,1.3,9,2.1
		c1.8-10.5,3.6-20.9,5.5-32.2c3.2,1.7,5.6,3,8.8,4.8c2.1-9.4,4-18,6-26.9c3.3-0.6,6.2-1.1,9.7-1.7c0.7-5,1.4-10.1,2.3-16
		c6.7-1.3,12.5-4,11.9-12.8c10.2,0.1,11.8-7,14.5-15.1c-8.7,0.9-14.9,4.6-20.1,9.7c-5.1,5-9.6,10.5-15.5,17
		c-2.6-4.8-4.3-8.1-6.1-11.4c-8.2,4.7-9.4,16.4-20.1,19.5c-0.8-4.8-1.5-9.2-2.6-15.7c-7.7,8.4-14.2,15.4-20.9,22.8
		c-4.8-19.8,5.3-41.4,25.9-56.4c19-13.8,39.7-15.8,61.9-9.5c-16.1-13.1-33.5-15.6-52.6-6.2c-1.6-3.1-2.9-5.6-4.6-9
		c-9.3,4-16.4,10.7-24.2,17.8c-1.6-1.4-3.2-2.8-4.8-4.2C733,259,733,259,724.1,269c0.5-5.4,0.4-9.2,1.2-12.7
		c5.8-25.8,28.4-45.2,55.1-47.7c15.6-1.5,30.7,0.7,44.8,7.3c11.7,5.5,23,11.6,35.3,17.9c0-10.3-2.9-19.5-10.1-26.8
		c-7.6-7.6-17.9-5.6-28.1-5.4c0-4.7,0-8.8,0-13.2c-9.2-1.8-15.8,3.4-23.9,6.5c0.6-5.2,1-9.6,1.6-14.6c-12,0.5-18.4,9.3-26.8,15.9
		c-0.5-4.3-1-7.6-1.6-12.8c-7.8,6.1-14.4,11.3-22.4,17.5c1.1-18.8,7.4-33.1,22.5-42.2c26.3-15.8,53.5-17,80.9-2.8
		c7.9,4.1,15.2,9.4,22.8,14.2c2.5-10.8-2.1-19.4-18.2-34.6c4.1-7.2,4-9.3-2.3-14.9c-4-3.5-8.7-6.1-13.6-9.5
		c-1.1-13.9-15.3-16-24.9-24.1c14.1-4,26.6-2.1,38.7,3c25.9,10.8,42.1,30.6,51.3,56.7c0.7,1.9,1.2,3.8,1.8,5.7
		c0.6,1.8,1.1,3.7,2,6.6c3-2,5.5-3.3,7.7-5c20.3-15.5,43-18.9,67.1-12.2c17,4.7,27.7,22.2,27.1,43.2c-9.6-0.5-9.6-13.4-19.2-14.1
		c-0.5,2.9-0.9,5.9-1.4,8.8c-9.1-4-18.1-7.9-28.4-12.4c0,4.8,0,7.8,0,11.7c-18.3-3.4-34.9-1.6-48,13.8c3.6-0.5,7.3-0.8,10.9-1.4
		c39.3-7,73.2,3.1,101.2,31.9c20.8,21.4,26.2,51.7,13.5,81.1c-3.3-10.7-6.2-20.2-9.3-30.4c-4.2,3-7.6,5.4-12,8.5
		c-1.9-11.4-3.4-21.8-5.3-32.1c-0.9-4.7-1.7-9.8-8.1-11.7c-0.8,4.2-1.6,8-2.4,12c-7.3-1.9-6.6-9.2-10.5-13
		c-3.7-3.6-7.4-7.2-12.4-12.1c-0.5,5.9-0.8,9.4-1.2,13.6c-8.7-4.3-15.4-12.2-26.4-12.8c1.2,4.8,2.2,9.1,3.5,14.6
		c-3.5-0.6-6-0.9-8.4-1.5c-15.2-3.8-30.3-4.7-45.1,1.6c-3.5,1.5-6.8,3.6-10.3,6.7c54.6,5.5,91.3,34.4,113.3,83.2
		c10.8,23.9,13.7,48.3,3.6,73.4c-2.1-14.1-2.6-28.5-10.1-42.3c-3.1,5.1-5.5,9.2-8.6,14.3c-4.3-15.6-4.6-31.6-17.7-43.3
		c-2.1,5.1-3.9,9.5-6.4,15.5c-4.8-9.4-8.6-18-13.3-26c-4.7-8.1-10.8-15-19.8-20.8c-1,3.8-1.8,6.8-2.7,10.3c-4-0.4-5.4-4.2-8-6.5
		c-8.2-7.2-16.1-14.8-24.7-21.6c-5.4-4.2-12.2-6.3-21.2-7.2c8.3,7.1,15.1,12.9,21.8,18.9c16.3,14.8,27.8,32.3,30.1,54.7
		c0.5,5.2,0.3,10.8-1,15.8c-2.5,9.4-8.9,15.1-19.8,16.6c1.7-6.3,3.3-11.8,5-18c-4-0.6-7.1-1.1-10.9-1.8c0.8-6,1.7-12,2.7-19.1
		c-4.4,1-7.5,1.7-11.4,2.6c-0.9-10.5-1.8-20.8-2.7-31.1c-0.7-0.1-1.4-0.3-2.1-0.4c-1.9,3.2-3.9,6.3-6.6,10.8
		c-2.3-4.3-3.8-7.9-5.9-11.1c-3.7-5.9-7.4-11.9-11.8-17.2c-3.9-4.6-5.1-4.3-12.6-1.6c0.7,2,1.4,4,2,5.8c-5.1,4.4-9.9,8.4-16,13.5
		c2.4,1.6,4.2,2.8,6.3,4.2c-6.4,5.7-12.4,11.1-19.2,17.1c3.8,1.8,6,2.8,9,4.2c-9,6.6-18.3,11.6-22.5,22.1c2.2,1.4,4.2,2.7,6.7,4.3
		c-7.6,5.8-16.2,9.5-20.6,18.7c3.4,1.3,6.4,2.4,10.1,3.7c-7,7.1-13.8,14-21.4,21.6c4.2,1.8,6.8,2.8,10,4.2c-6.2,6.2-12,12-18.7,18.9
		c5.4,1.2,9.1,2.1,14,3.1c-5,5.1-9.9,9.5-14.2,14.4c-4.1,4.7-7.6,9.9-12,15.9c4.1,1.3,6.8,2.1,10.5,3.3c-6.2,7-13.6,12.8-16.7,22.1
		c3.4,1.3,6.4,2.5,9.8,3.8c-5.6,9.3-15.4,15.3-18.3,26.8c25,3.9,49.5,8.3,73.6,17.2c0.3,4.8,0.8,9.7,0.9,14.6
		c1.8,72.6,3,145.2,5.8,217.7c0.6,16.6-2.5,29.7-14.4,41.1c-5.7,5.5-10.3,12-16,18.7c-3.7-2.1-6.8-4-10-5.5
		c-17-8.3-33.9-16.9-51.3-24.5c-6.5-2.9-14.1-4.3-21.3-4.6c-10.9-0.5-16.8,6.1-17.2,17.5c3.3-0.5,6.4-1,10.9-1.6
		c-3,6.7-5.6,12.5-8.5,19.1c4.6,0,8.4,0,12.9,0c-2.8,12.1-13.1,21.3-11.7,34.8c4-0.6,7.5-1.2,11.7-1.9c-1.7,11.8-9.9,21.6-8,34.3
		c4.1-1.3,7.8-2.4,13-4c-2.5,9.5-4.7,17.9-7.4,28.1c6-1.6,10.4-2.5,14.7-4c34.9-12.6,65.8-31.9,93.8-56
		c34.2-29.4,61.8-64.2,84.9-102.8c19.9-33.3,31.6-69.6,39-107.4c16.5-85.1-0.4-164.7-41.1-240c-9.5-17.5-20.7-34.1-31.1-51.2
		c-1.7-2.7-3.5-5.4-4.1-9.3c1.9,1.4,4.1,2.5,5.7,4.1c70.1,67.6,114.5,148.6,129.2,245.4c6.7,44.1,7.7,88.3,1.8,132.4
		c-12.6,93.7-50.6,175.3-118.4,242c-37,36.4-80.8,62.8-129.3,81.5c-39.3,15.2-79.7,26.2-121.6,30.6c-15.8,1.7-32,1.7-47.9,1
		c-40.7-1.8-80.9-7.6-120-19.2c-64.1-19-120.1-51.7-167.8-98.8c-57.8-57-95.1-126-120.9-202c-7.8-22.9-11.5-46.5-13.6-70.3
		c-1.9-20.9-2.8-41.9-2.6-62.8c0.9-94.5,32.1-177.9,93.5-249.9c18.4-21.6,38.9-41,61.3-58.6c-2.4,3.3-4.8,6.7-7.3,10
		c-24.8,32.8-46.4,67.5-61.2,106.1c-22,57.5-28.1,116.7-18.8,177.6c11,71.9,39.2,135.8,86.4,191.2c32.7,38.4,72.8,67.2,117.3,90.1
		c9.7,5,19.7,9.5,30.3,14.6c2.2-9.3-3.3-16.4-3.2-25c3.7,0.7,7,1.4,11.9,2.3c-4.2-11.8-8-22.2-12.2-33.8c5,0.4,9.4,0.8,15.4,1.4
		c-4.8-12.1-9.2-22.9-14.3-35.6c5.2,2.6,8.5,4.3,12.8,6.5c-1.1-11.1-10.2-17.7-12.5-28.3c4.6,0.3,8.7,0.5,14.5,0.8
		c-3.9-8.5-7.2-15.9-10.8-23.7c-35.8,0.9-67.5,13-98.3,30.2c-2.5-2.3-5.1-4.2-7.3-6.7c-7.3-8.3-14.2-16.8-21.5-25
		c-3.6-4-5-8.3-4.5-13.6c1.8-21.2,3.4-42.5,5.1-63.7c2.4-30.5,4.9-61.1,7.3-91.6c2.4-30.5,4.8-61,7.3-92.4
		c24.6-10.4,50.9-13.3,78.7-14.4c-3.8-7.6-7-14.1-10.8-21.8c1.8-1,3.8-2.2,6.6-3.8c-5.2-8.7-9.9-16.6-14.8-24.8c1.9-1.6,3.6-3,6.1-5
		c-6.9-9.5-13.5-18.9-20.7-28.9c3.8-0.2,6.6-0.4,11.4-0.7c-7-8.6-13-16-19.4-23.9c1.4-1.8,2.6-3.4,4.4-5.8
		c-3.8-6.3-7.7-12.7-11.6-19.3c-1.5-2.5-3.4-4.9-0.7-8.1c0.7-0.9,0-3.7-0.9-5.1c-2-3.4-4.7-6.5-6.7-9.9c-2.1-3.3-6.3-5.9-3.3-11.3
		c0.8-1.4-2.3-5.1-4-7.5c-3.5-4.8-8-9.1-7.8-15.7c0-0.6-0.2-1.4-0.6-1.9c-10.7-11.8-13.3-28.1-23-40.5c-7.3-9.4-9.6-10.2-19.6-3.7
		c-3.7,2.4-6.7,6.3-9.5,9.9c-2.8,3.6-4.9,7.7-7.7,12.2c-2.6-4.8-4.5-8.4-7.1-13.1c-4,6.6-4.5,12.8-4.7,18.9c-0.2,6.3,0,12.5,0,19.7
		c-4.2-2.2-7.9-4-13.5-6.8c1.3,7.9,2.3,14.2,3.4,20.8c-2.6,0.1-4.8,0.3-7.7,0.4c0.6,7.4,1.3,14.5,1.9,21.9
		c-19.3-3.9-25.9-20.7-24.9-34.2c1.3-18.2,9.4-33.2,22.7-45.2c6.2-5.6,13.1-10.2,19.7-15.2c2.6-2,5.3-3.7,8.7-6.1
		c-8.2-0.5-15,1.2-25.4,7.4c-7.4,4.4-14.1,9.8-21.5,15c-1.6-2.7-3.1-5.2-5.1-8.4c-16.1,8.4-25.5,23-36.3,37.5
		c-3-4.4-5.3-7.8-8.5-12.5c-10.4,11.7-15.2,25.6-21.9,39.5c-2.1-3-3.8-5.5-6.1-8.7c-8.6,10.5-9.8,23.3-14.6,35.6
		c-0.7-2.1-1.5-3.4-1.6-4.8c-0.7-30.1,5.6-58.2,23.2-83.2c17.6-25,42.5-38.7,71.9-44.9c9.1-1.9,18.4-2.9,27.6-4.3
		c3.6-0.6,7.1-1.1,12.8-2c-20.2-15.6-41.6-18.9-65.5-17.2c1.7-5.2,3.1-9.4,4.8-14.5c-12.8-1.8-22.5,5.1-33.4,9.3
		c-0.8-3-1.6-5.8-2.5-9.3c-10.2,1.6-14.1,10.5-20.5,16.9c-2.8-3.6-5.3-6.9-8.1-10.5c-12.5,10.8-15.3,25.8-19.7,40.3
		c-2-2.4-3.6-4.3-5.7-6.8c-7.9,6.8-9.4,16.3-12.9,24.8c-0.6-0.5-1.3-0.7-1.4-1.1c-8.4-28.4,0.6-57.1,24.1-75
		c26.8-20.5,57-26.1,89.8-19.6c7.8,1.5,15.5,3.4,24.1,3.6c-2.4-2-4.5-4.6-7.2-6c-9.7-5.1-19.4-10.2-29.5-14.4
		c-9-3.7-9.2-3.1-12.7-11.8c-9.6-1.1-17.7,4.3-27.2,7c-0.4-4-0.8-7.5-1.2-11.3c-10.1-1.1-14.3,8-21.4,11.5
		c-3.8-9.6-0.6-20.6,8.1-28.1c7.1-6.1,15.7-8.5,24.8-9.3c12.6-1.1,24.7,1.4,35.8,7.1c9.8,5,19.1,10.8,28.6,16.3
		c3.7,2.1,7.2,4.5,12,7.5c4.1-24.4,13.3-44.4,34.8-56.7C329.2,61.8,346.8,58.5,372.2,61.6z M362.6,523.2c-2,32.1-4.1,63.3-5.8,94.5
		c-2.7,48.2-5.1,96.4-7.6,144.6c-0.2,3.7,0.4,7.5,0.7,11.6c3-0.7,4.6-1,6.2-1.5c5.1-1.5,10.2-3.1,15.3-4.7
		c73.4-22.3,142.7-14.6,207.4,27.9c1.9,1.3,4,2.4,5.9,3.8c3.9,2.9,7.7,3.5,11.9,0.6c2.5-1.7,5.2-3,7.8-4.4
		c35.8-18.9,73.8-28.6,114.3-27c31.9,1.3,62.6,8.5,92.1,20.7c3.8,1.6,7.7,2.9,12.8,4.8c0-5.3,0.1-8.9,0-12.6
		c-1.2-64.3-2.4-128.5-3.6-192.8c-0.2-11.7-1-23.3-1-34.9c0-6-2.4-8.8-8.1-10.5c-29.5-8.8-59.6-14.5-90.4-14.5
		c-37.5,0-74.4,5.2-110.3,15.9c-6,1.8-11.5,2-17.4-0.3c-38.6-15-78.4-25.6-119.9-29.1C436.1,512.2,399.8,515.3,362.6,523.2z
		 M539.8,823c-1.3,7-2.5,12.9-3.5,18.8c-0.3,1.9-0.5,5,0.4,5.6c6,3.3,3.2,7.8,2.3,12.1c-1.9,9-3.7,18.1-5.5,26.7
		c2.6,1.6,4.2,2.5,6.1,3.6c-2.1,6.3-4.1,12.2-6.2,18.4c2.6,1.2,4.9,2.2,7.6,3.5c-3.9,8.2-7.6,15.9-11.2,23.6
		c19.2,9.8,101.2,12.3,118.9,3.9c-2.9-7.2-5.7-14.5-8.8-22.2c5.4-1,9.7-1.8,14.9-2.7c-5.7-10.3-10.8-19.5-16.1-29
		c3.7-0.9,6.2-1.5,9.3-2.3c-3.2-10.2-6.3-19.8-9.5-29.8c4-1.1,7.1-1.9,11-2.9c-3.3-8.8-6.3-17-9.3-24.9c3.1-2.3,5.3-4.1,7.8-5.9
		c-1.4-6.8-2.8-13.1-4.3-20c-21.3,7.8-38.3,20.7-56.6,31.9c-13.9-13.1-26.8-26.7-46.2-31.7c-2.2,5.7-3.9,10.7-6,15.5
		C533.1,819.5,535.3,821.7,539.8,823z M460.4,505.6c1.3-46.4-74.4-220.4-111.8-257.5c-3.7,3.6-7.4,7.1-11.4,11
		c3,4.9,5.2,8.9,7.7,12.8c18.5,28.5,34.9,58.2,49.3,89c20.4,43.5,35.2,89,47.7,135.3c0.9,3.4,2.2,6.7,3.4,10.5
		C450.7,506.3,455.3,505.9,460.4,505.6z M740.3,519.1c1.4-4.5,2.7-8.6,4-12.6c6.4-19.6,12.1-39.4,19.5-58.6
		c21.3-55.5,50.9-106.7,84.2-155.8c2.3-3.4,4.3-7.1,6.9-11.4c-6.8-2.5-12.2-4.5-18.3-6.7c-47.7,77.4-88.4,156.9-112.2,245.2
		C730,519.1,734.5,519.1,740.3,519.1z M699.8,795.9c-9.7,1-17.2,2-24.7,2.5c-5.2,0.3-7.8,2.9-8.7,7.8c-2.6,14.4-6.2,28.6-7.7,43.1
		c-2.5,24.3,0.4,48.5,4.5,72.5c1,5.7,2.8,11.2,4.5,17.7c10.2-3.6,19.2-6.7,28.8-10.1C693.1,885.1,687.9,841.3,699.8,795.9z
		 M514.3,791.8c-9.1-0.8-18.8-1.6-29-2.4c0,2.5-0.2,3.8,0,5c5.8,38.4,6.7,76.8,1.5,115.3c-2.5,18.8-2.1,18.9,18.1,21.8
		C518.9,901.5,528.1,826.5,514.3,791.8z"/>
	<path class="st1" d="M4049,942.2c45.1-75.7,89.2-149.7,133.3-223.6c38.9,0,77.2,0,115.4,0c2.3,7.3,3.6,408.8,1.4,420.5
		c-42.1,0-84.3,0-128,0c-0.7-31.2-0.6-62.4-0.7-93.5c-0.1-31.2,0-62.5-1.7-94.5c-1.6,2.2-3.3,4.3-4.7,6.6
		c-26.7,44.9-53.6,89.7-80,134.9c-4.1,7-8.6,9.6-16.5,9.2c-14-0.6-28-0.6-42,0c-7.4,0.3-11.3-2.5-15-8.6
		c-26.1-42.6-52.5-85-78.8-127.4c-1.7-2.8-3.6-5.5-6.3-8.2c-1.2,15.1-0.9,30.1-1,45c0,15,0,30,0,45c0,15.3,0,30.6,0,46
		c0,14.9,0,29.8,0,45.4c-43.4,0-85.8,0-128.9,0c0-140.1,0-279.8,0-420c38.9,0,77.4,0,116.7,0C3957.2,792.5,4002.6,866.5,4049,942.2z
		"/>
	<path class="st1" d="M7858.9,1139.1c-45.9,0-90.4,0-136.3,0c0-4,0-7.5,0-11.1c0-50,0.2-99.9-0.1-149.9c-0.1-10.6-0.9-21.3-3-31.7
		c-2.8-14-11-24.2-26-27c-15.4-2.8-28.4,1.6-38.3,13.8c-7.6,9.4-10.2,20.8-11.3,32.5c-0.5,6-0.4,12-0.4,18c0,48,0,95.9,0,143.9
		c0,3.6,0,7.1,0,11.3c-45.5,0-90,0-134.5,0c-2-7.5-2.9-305.6-1-327.9c42.4,0,84.9,0,128.4,0c0,8.7,0,17.5,0,29.2
		c15.7-13.5,31-23.1,48.5-28.8c17.6-5.8,35.7-8,54.2-6.8c18.1,1.1,35.5,5.2,51.9,13.3c16.7,8.2,31,19.3,41.8,35.4
		c2.3-2.1,4-3.6,5.6-5.2c32.4-34,72.8-46.7,118.7-43.1c25.3,2,49.1,9.4,69.4,25.4c23.6,18.6,37,43.4,42.8,72.4
		c2.7,13.3,4.3,27,4.4,40.6c0.5,63.3,0.3,126.5,0.3,189.8c0,1.6-0.2,3.3-0.3,4.8c-7,2.1-120.8,2.8-135.7,0.6c0-3.3,0-6.9,0-10.4
		c0-50.3,0.1-100.6-0.1-150.9c0-9.6-0.7-19.4-2.6-28.7c-2.9-14.2-10.6-25.3-25.8-28.7c-15.3-3.5-28.4,0.9-38.5,13
		c-7.3,8.7-10.4,19.3-11.3,30.4c-0.6,7.6-0.8,15.3-0.8,23c-0.1,47.3,0,94.6,0,141.9C7858.9,1131.5,7858.9,1135.1,7858.9,1139.1z"/>
	<path class="st1" d="M2729.5,1139c-45.4,0-89.8,0-135.6,0c0-4,0-7.5,0-11c0-50.3,0.2-100.6-0.2-150.8c-0.1-10.6-1.3-21.3-3.7-31.6
		c-3.5-14.9-13.1-24.9-28.8-26.7c-15.4-1.8-28.2,3.8-36.9,17c-8,12.1-9.9,26-9.9,40.1c-0.1,46.9-0.1,93.9-0.1,140.8
		c0,7,0,13.9,0,20.7c-7.3,2.3-120,3-136,0.8c0-3.3,0-6.8,0-10.4c0-50.9,0.2-101.9-0.2-152.8c-0.1-10.2-1.4-20.6-3.6-30.6
		c-3.1-13.8-11.7-23.1-26.2-25.4c-14.9-2.4-27.7,1.9-37.4,13.8c-6.2,7.7-9.5,16.8-10.5,26.6c-0.9,8.3-1.5,16.6-1.6,24.9
		c-0.1,47.6-0.1,95.2-0.1,142.8c0,3.6,0,7.2,0,11.5c-45.3,0-89.8,0-134.4,0c-2.3-7.2-3.4-297-1.2-326.8c6.7-2.1,114.9-2.8,128.8-0.6
		c0,8.7,0,17.6,0,29c30.1-26.9,63.9-38.1,101.9-35.9c38.3,2.3,71,16.5,95.9,49.8c2.2-3.1,3.6-5.8,5.7-7.9
		c33.9-34.2,75.3-46.1,122.3-40.9c9.2,1,18.5,2.9,27.3,5.7c43.4,13.6,68.7,44.3,78.8,87.6c3.6,15.4,5.6,31.6,5.8,47.4
		c0.7,62.3,0.3,124.5,0.3,186.8C2729.9,1134.6,2729.7,1136.3,2729.5,1139z"/>
	<path class="st0" d="M4916.6,336.6c0,4.5,0,8,0,11.6c0,47.6,0,95.3,0,142.9c0,2,0.1,4,0,6c-0.4,6.5-3.5,10-9.7,10.2
		c-8.3,0.3-16.7,0.3-25,0c-6.5-0.2-9.6-3.5-10-9.9c-0.2-2.3,0-4.7,0-7c0-47.3,0-94.6,0-141.9c0-3.6,0-7.2,0-12.1
		c-18.2,0-35.5,0-54.2,0c0,4.3,0,7.8,0,11.3c0,47.6,0,95.3,0,142.9c0,2.3,0.1,4.7,0,7c-0.5,5.6-3.8,9.4-9.4,9.6
		c-8.6,0.4-17.3,0.4-26,0c-6.7-0.3-9.8-3.9-9.9-11c-0.2-10.3,0-20.6,0-31.6c-15.9,3.3-31,2.5-46.3,2.1c-35.8-1-70.1-36.4-65-77.3
		c7,0,14.3-0.7,21.3,0.2c10.1,1.3,17.3-1.7,19.9-11.3c1.5-5.5,1.5-11.8,0.7-17.5c-0.6-4.4-3.2-8.7-5.4-12.8
		c-4.2-7.7-9.7-12-19.7-11.5c-19.9,1-39.9,0.3-61.4,0.3c0,3.9,0,7.4,0,10.9c0,47.3,0,94.6,0,141.9c0,2,0.1,4,0,6
		c-0.2,8.2-3.3,11.6-11.3,11.8c-7.3,0.2-14.7,0.2-22,0c-8.2-0.2-11.2-3.3-11.3-11.7c-0.1-22.6,0-45.3,0-67.9c0-3.3,0-6.6,0-10.5
		c-13.2,0-25.6,0-39.5,0c0,6.1-0.5,12.4,0.1,18.5c1,10.4-6.1,14.2-13.6,14.7c-13.9,1-26.5-1.1-35.6-13.4
		c-4.3-5.9-9.7-10.9-14.3-16.7c-2.2-2.8-3.9-6.2-5.2-9.6c-3.9-9.8-0.7-17.1,9.3-20.5c4.3-1.5,9-1.7,14.2-2.6c0-16.4,0-32.9,0-50
		c-1.7-0.3-3.5-0.8-5.4-1c-12.2-1-24.4,0.8-36.7-1.5c-8.1-1.5-16.9,1.4-26.8,2.5c-0.1,2.7-0.4,6.2-0.4,9.7c0,47.6,0,95.3,0,142.9
		c0,2.3,0.1,4.7,0,7c-0.4,6.2-3.8,9.8-10,10c-8.7,0.3-17.3,0.3-26,0c-5.7-0.2-8.9-3.9-9.3-9.6c-0.2-2.3,0-4.7,0-7
		c0-47.3,0-94.6,0-141.9c0-3.6,0-7.2,0-11.5c-18.8,0-36.9,0-56.1,0c0,4,0,7.6,0,11.1c0,47.3,0,94.6,0,141.9c0,2,0.1,4,0,6
		c-0.3,7.6-3.3,10.9-10.9,11.2c-7.7,0.2-15.3,0.2-23,0c-8.1-0.2-11.1-3.4-11.2-11.9c-0.2-12.7,0-25.3,0-38c0-36.3,0-72.6,0-108.9
		c0-3.6,0-7.2,0-11.7c-18.7,0-36.5,0-55.7,0c0,3.9,0,7.4,0,10.9c0,47.3,0,94.6,0,141.9c0,2.3,0.1,4.7,0,7
		c-0.4,6.9-3.5,10.3-10.5,10.6c-7.3,0.3-14.7,0.2-22,0.1c-9.4-0.2-12.6-3.3-12.6-12.6c-0.1-25,0-50,0-74.9c0-3.3,0-6.5,0-11.9
		c-14.2,11.1-19.5,25.7-25.2,39.5c-15.6,3.8-27.7-2.5-39.6-11.1c-1.5-10.7,6.9-18,10.5-27.4c-6.2-7.1-14.6-10.2-23.2-12.5
		c-5.4-1.5-9.7,1.7-13.1,5.6c-8.9,10.5-11.7,22.1-6.3,35.3c3.8,9.2,9.6,16.9,17.8,22.3c10,6.6,20.4,12.6,30.9,18.2
		c9.5,5.1,11.1,8.9,5.5,18.1c-8.2,13.3-3.7,11.2-20,11.5c-10.7,0.2-20.4-2.7-29.2-8.7c-14.8-10-27.5-22.2-38-36.5
		c-10.2-13.9-14.4-29.8-13.7-48c-3.1-0.3-5.9-0.7-8.8-0.7c-18.3-0.2-36.6-0.4-55-0.5c-1.5,0-3.2,0.4-4.6,1.1
		c-6.5,3.1-13,6.3-20.3,9.8c0.7,1.4,1.6,3.7,2.8,5.8c11,18.4,24.6,34.8,39.2,50.4c6.7,7.1,6.5,11.9-1.2,18.2c-5,4.1-9.1,9-16.9,9.4
		c-11.1,0.5-19.4-3-25.7-12c-6.2-9-12.7-17.9-18.9-27c-18.3-26.6-37.1-52.9-52.4-81.4c-1.5-2.9-3-5.8-4.6-8.9
		c11.9-9.7,23.7-18.3,41.2-12.9c6.8,8.1,8.4,21.6,19.8,30.3c1.2-3.5,2.7-5.8,2.7-8c0.2-16.6,0.1-33.2,0.1-51.1c-39,0-77.3,0-116.7,0
		c0,9.8,0,18.7,0,27.6c0,2.7,0.1,5.3,0,8c-0.4,7.5-3.6,10.7-11.3,10.8c-18.3,0.1-36.7,0-55,0.1c-3.2,0-6.4,0.3-10.6,0.5
		c4.3,11.3,12.1,18.5,19.7,25.6c1.6,1.5,6.3,0.6,9.2-0.3c11.5-3.8,23.1-6.2,35.2-6.2c14.1,0.1,24.3,7.6,27.4,21.4
		c5,21.8-0.5,41.1-15.9,57c-6.4,6.6-14.3,11.7-22,17.9c4.8,6.6,12,11.1,19.2,15.7c3.6,2.3,7.4,4.5,11,6.9c5.7,3.9,6.7,8.5,3.4,14.4
		c-0.6,1.2-1.3,2.4-2.1,3.4c-3.1,3.6-3.7,10.3-9.5,10.7c-7.8,0.5-16,2.2-22.9-3.7c-13.7-11.5-27.8-22.7-41.4-34.4
		c-6.3-5.5-11.8-10.7-21.5-10.4c-7.3,0.2-15.1-2.5-22.1-5.4c-12.8-5.4-18.8-18.7-15.9-32.2c2.1-9.9,10.3-15.9,21.7-17.4
		c20.5-2.8,36.5,4.4,48.7,20.8c0.8,1.1,1.8,2,2.7,2.9c0.2,0.2,0.6,0.3,0.9,0.4c16-3.4,23.6-15.4,21-34.3c-3.2,0.7-6.2,1.7-9.3,2.1
		c-10.2,1.1-20.4,2.6-30.6,2.8c-10.1,0.1-18.5-5-25.6-12c-10.7-10.7-19.1-23.1-25.4-36.8c-9-19.4,0.8-34.9,22.2-35.4
		c14-0.3,28-0.2,42-0.2c3.3,0,6.6,0,10.6,0c0-6.8,0-12.9,0-19.8c-3.3-0.2-6.5-0.5-9.8-0.5c-26,0-52,0-78,0c-12,0-18.1-9.3-12.8-20.3
		c1.2-2.6,4.6-4.6,7.5-5.7c2.3-0.9,5.3-0.2,7.9-0.2c49.7,0,99.3,0,149,0c53.3,0,106.5,0,159.8,0c79.9,0,159.8,0,239.8,0
		c44.6,0,89.3,0,133.9,0c3.6,0,7.2,0,12.1,0c-0.8-4.2-1.3-7.4-1.9-10.5c-7.2-33.9,13.3-63.7,47.6-69.4c22.2-3.7,43.7-2.1,64.6,6.9
		c17.9,7.6,34.9,16.7,49.7,29.3c14,11.8,27.6,24,40.9,36.6c5.2,4.9,10.2,7.3,17.5,7.3c77.9-0.3,155.8-0.2,233.8-0.2
		c38.2,0,76.4,0,114.7,0c3.9,0,8-0.7,11.1,3c2.6,3,4.4,13.1,2.3,17c-2.4,4.3-5.9,6.8-11.4,6.4
		C4932.4,336.3,4925.1,336.6,4916.6,336.6z M4169.9,336.7c-67.4,0-133.7,0-200.1,0c0,17.1,0,33,0,49.9c3.7,0,7,0,10.2,0
		c14,0,28-0.2,42,0.1c4.7,0.1,9.3,1.7,14.7,2.7c7.8-9.6,18.2-17.3,31.4-20c24-5,47.6-5.3,69.3,9.1c1.9,1.3,5.1,2.1,7.2,1.4
		c8.4-2.7,16.7-6.1,25.3-9.4C4169.9,359.8,4169.9,348.9,4169.9,336.7z M4522.5,309.2c-21.3-20.3-43.3-36.1-68.9-46.6
		c-4.6-1.9-9.4-3.3-14.3-4.4c-2.4-0.5-5.3-0.5-7.7,0.4c-10.1,3.6-16.9,10.8-19.1,21.4c-2.1,9.9-1.9,19.8,2.5,29.2
		c10.1,0.9,19.9,2.7,29.8,2.5C4469.9,311.4,4495,310.2,4522.5,309.2z M4740.5,337.1c7.6,16.2,13.1,31.5,6.9,48.1
		c-6.3,16.9-19.7,25.9-37.8,30.7c3.8,5.8,6.3,10.5,9.7,14.4c10.7,12.3,21.2,13.9,35,5.6c3.7-2.2,7.1-5,10.1-8
		c5.2-5.4,8-11.5,7.8-19.6c-0.6-20.3-0.2-40.6-0.2-60.9c0-3.2,0-6.5,0-10.2C4761.5,337.1,4752,337.1,4740.5,337.1z M4532.8,337
		c0,17.5,0,33.9,0,50.6c13.1,0,25.5,0,38,0c0-17.2,0-33.7,0-50.6C4558,337,4545.8,337,4532.8,337z"/>
	<path class="st0" d="M3331.5,464.5c-16.5,3.6-32,3-47.6,2.1c-38.4-2.2-68.1-37.4-63.9-77.1c7,0,14.3-0.7,21.3,0.2
		c9.9,1.2,17.7-2.9,20.5-12.3c3.5-11.6-3.1-31.9-12.9-38.9c-1.5-1.1-3.7-1.5-5.5-1.5c-23.7-0.1-47.3-0.1-71-0.1
		c-0.6,0-1.2,0.5-2.8,1.3c0,3,0,6.6,0,10.2c0,47.3,0,94.6,0,141.9c0,2.3,0.1,4.7,0,7c-0.4,6.4-3.5,9.8-9.8,10.2
		c-7,0.3-14-0.4-21,0.3c-9.3,0.9-14.8-4.7-14.5-14.2c0.7-24.6,0.2-49.3,0.2-73.9c0-3.2,0-6.4,0-11.6c-14,11.3-19.5,25.4-25,39.4
		c-15.6,4.1-27.9-2.5-39.6-10.8c-1.6-11,6.6-18,10.2-27.3c-6-7.5-14.8-10.6-23.8-12.7c-5.4-1.3-9.6,2.2-12.9,6.1
		c-8.6,10.3-10.8,21.9-5.9,34.5c3.6,9.3,9.5,17,17.7,22.4c10.3,6.7,21,12.8,31.7,18.7c8.7,4.8,10.4,8.8,5.1,17.4
		c-8.6,13.8-3.6,11.6-20.8,11.9c-10.7,0.2-20.4-2.9-29.1-8.9c-14.7-10.1-27.6-22.1-37.8-36.7c-12.8-18.2-17-38.1-9.9-59.7
		c0.2-0.6,0.4-1.3,0.5-1.9c0-0.2-0.2-0.5-0.7-1.8c-27.4,5.2-37.6,26.5-46.2,48.9c-15.3,3.7-27.6-2.3-39.6-11.1
		c-1.9-10.7,7-17.8,10.3-27.3c-6-7.4-14.5-10.2-23.1-12.6c-5.4-1.5-9.7,1.8-13.1,5.6c-8.5,9.8-11.1,20.9-6.9,33.4
		c3.9,11.6,11.8,20.1,21.7,26.6c8.9,5.8,18.3,10.9,27.7,15.8c9.5,5,11,8.8,5.4,17.9c-8.1,13.3-3.8,11.3-21,11.6
		c-9.6,0.1-18.5-2.4-26.5-7.6c-16.9-11.1-31.4-24.7-42.4-41.7c-6.8-10.5-10.6-22.1-10.7-34.8c-0.2-28,17-49.5,44.5-54.4
		c23.9-4.3,47.2-3.7,68,11.3c0.8,0.6,1.9,0.7,3.1,1.1c12-6.3,24.6-11.4,38.6-11.7c12.9-0.3,15.3,1.7,15.7,14.3
		c0,1.3,0.2,2.6,0.4,4.7c1.4-0.7,2.7-1,3.4-1.8c11.4-12.6,26.1-18.1,42.5-19.5c19.6-1.8,38.7-0.2,55.5,11.6c2.6,1.8,4.9,2.6,8.3,1.2
		c7.6-3.2,15.5-5.9,24.1-9c0-10.4,0-21.6,0-34c-3.3-0.1-6.8-0.3-10.3-0.3c-47.7,0-95.3,0-143-0.1c-4.1,0-8.2-1.5-12.3-2.2
		c-1.1-0.2-2.4-0.2-3.5,0c-4.1,0.7-8.2,2.2-12.3,2.3c-44.3,0.2-88.6,0.5-133-0.1c-13.1-0.2-26.1,0.9-40.5,0.2c-0.1,4-0.4,7.5-0.4,11
		c0,47.6,0,95.2,0,142.9c0,2.3,0.1,4.7,0,7c-0.4,6.3-3.6,9.7-10,9.9c-8.3,0.3-16.7,0.3-25,0c-6.4-0.2-9.5-3.6-9.6-10.2
		c-0.2-9.7-0.1-19.3-0.1-29c0-40,0-79.9,0-119.9c0-3.6,0-7.1,0-11.7c-4.4,0-7.6,0-10.8,0c-13.1,0-26.2,0-40.4,0c0,4.5,0,8.1,0,11.6
		c0,47.3,0,94.6,0,141.9c0,2,0.1,4,0,6c-0.3,7.7-3.3,11-10.8,11.3c-7.7,0.2-15.3,0.2-23,0c-7.6-0.2-10.7-3.4-10.7-11.2
		c-0.1-23,0-46,0-68.9c0-3.2,0-6.5,0-10.2c-13.5,0-26,0-39.5,0c0,6.6-0.5,12.9,0.1,19.1c1,8.9-5.2,13.7-13,14.2
		c-13.8,0.9-26.6-0.6-35.8-12.9c-5.5-7.5-12.7-13.8-17.4-21.7c-9-14.9-2.5-25.9,14.9-27.1c1.6-0.1,3.3-0.2,5.8-0.3
		c0-16.9,0-33.6,0-50.4c-0.5-0.3-1-1-1.6-1c-11.3-0.2-22.7,0.5-33.9-0.6c-10.9-1.1-21.4,1.9-33.6-0.4c0,4.8,0,8.3,0,11.8
		c0,47.6,0,95.2,0,142.9c0,2.3,0.1,4.7,0,7c-0.4,5.5-3.8,9.4-9.4,9.6c-8.6,0.4-17.3,0.4-26,0.1c-6.3-0.2-9.5-3.8-10-10.1
		c-0.2-2.3,0-4.7,0-7c0-47.3,0-94.6,0-141.9c0-3.6,0-7.1,0-11.8c-7.2,0-13.4,0.1-19.7,0c-8.7-0.2-12-3.9-12-13.3
		c0-9.4,3.1-12.7,12.3-12.9c5.6-0.1,11.2,0,17.8,0c-0.8-4.5-1.3-7.7-2-10.8c-6.9-32.7,13.3-63,46.1-68.8c23.2-4.1,45.6-2.4,67.5,7.1
		c17.5,7.7,34.2,16.6,48.7,29c13.9,11.9,27.6,24,40.9,36.6c5.2,5,10.4,7.2,17.6,7.1c21.9-0.5,43.9-0.2,65.8-0.2c3.2,0,6.4,0,10.3,0
		c-0.9-4.7-1.5-8.3-2.2-11.8c-6.5-32.5,13.6-62,46.1-67.8c23.2-4.1,45.7-2.5,67.5,7.1c15.9,7,31.4,14.8,44.8,25.9
		c15.6,13,30.7,26.6,45.6,40.3c4.7,4.4,9.3,6.7,15.8,6.5c5.1-0.2,10.3,1.3,15.5,2.1c0.6,0.1,1.4,0.5,1.9,0.3
		c15.9-5.5,32.3-2.2,48.4-2.4c59.3-0.5,118.6-0.2,177.9-0.1c3.9,0,7.8,0.9,11.7,1.4c0.9,0.1,2,0.9,2.7,0.6
		c10.7-4.2,21.7-1.8,32.6-1.9c50.7-0.3,101.3-0.1,152-0.1c38.2,0,76.3,0,114.5,0c3.9,0,7.9-0.6,11.1,3c4.7,5.3,3.3,11.5,1.9,17
		c-1.2,4.7-5.9,6.6-11.2,6.3c-7-0.3-14-0.1-22.2-0.1c-0.2,3.9-0.4,7.4-0.4,10.9c0,47.6,0,95.2,0,142.9c0,2.3,0.1,4.7,0,7
		c-0.4,6.2-3.7,9.7-10.1,10c-8,0.3-16,0.3-24,0.1c-8.1-0.2-11.2-3.5-11.2-11.8c-0.1-22.3,0-44.6,0-66.9c0-27,0-53.9,0-80.9
		c0-3.3,0-6.5,0-11.2c-18.1,0-35.4,0-53.9,0c-0.1,4.1-0.4,7.6-0.4,11.1c0,47.6,0,95.2,0,142.9c0,2.3,0.1,4.7,0,7
		c-0.4,6.2-3.7,9.6-10.1,9.8c-8,0.3-16,0.3-24,0c-7.7-0.2-10.6-3.3-10.7-11.2C3331.4,485.9,3331.5,475.6,3331.5,464.5z
		 M2871.2,310.2c0.3-0.8,0.6-1.7,0.9-2.5c-19.9-18.7-41.8-34.5-67.3-45c-4.3-1.8-8.8-3.4-13.3-4.1c-3.4-0.5-7.4-0.4-10.4,1
		c-18,8.1-24.3,31.5-13.6,50.4c16.9,0.7,34,0.4,51.1,0.3C2836.1,310.1,2853.6,310.2,2871.2,310.2z M2472,310.3
		c12.9-1.2,25.8,0.6,38.9,0.1c20-0.8,40-0.2,59.9-0.2c2,0,4-0.5,7.8-1c-21.3-20.2-43.2-36-68.8-46.5c-4.6-1.9-9.4-3.3-14.3-4.4
		c-2.4-0.5-5.3-0.5-7.7,0.4c-9.7,3.6-16.4,10.3-18.8,20.4C2466.8,289.3,2467,299.4,2472,310.3z M3269.6,415.7
		c5.1,12.5,12.5,21,24.3,24.9c2.9,0.9,6.9,1.3,9.5,0c6.5-3.1,13-6.7,18.6-11.2c6.6-5.4,9.8-12.6,9.5-21.9
		c-0.6-19.9-0.2-39.9-0.2-59.8c0-3.5-0.3-7-0.5-10.7c-10.6,0-20.2,0-31.2,0c7.5,15.5,13,30.8,7.2,47.4
		C3300.7,401.7,3287.6,410.9,3269.6,415.7z M2627.5,336.6c-7.2,0-13.5,0-19.7,0c-6.2,0-12.4,0-18.3,0c-1.9,15.1-1.4,44.5,0.9,51.7
		c6.1,0,12.4,0.1,18.7,0c6.1-0.1,12.3-0.3,18.5-0.5C2627.5,370.4,2627.5,354.3,2627.5,336.6z"/>
	<path class="st1" d="M7116.7,173c21.4,0,41,0,62.1,0c0.1,14.3,0.1,28.4,0.2,42.6c0,14.3,0,28.6,0,43c0,14.3,0,28.6,0,43
		c0,14,0,28,0,42c0,14.3,0,28.6,0,43c0,14.3,0,28.5,0,43.4c30.7,0,60.4,0,91.2,0c0-39.5,0-78.7,0-118.5c3.1-0.3,5.3-0.7,7.5-0.7
		c44.7,0,89.3,0,134,0c1.3,0,2.7,0,4,0.1c28.5,1.3,43.5,16.4,43.7,44.9c0.3,30,0.1,59.9,0,89.9c0,4.3-0.6,8.6-1.4,12.9
		c-3,16.1-12.9,26.2-28.6,29.8c-7.7,1.8-15.8,2.3-23.8,2.3c-204.9,0.1-409.9,0.1-614.8,0.1c-19.7,0-39.3,0.3-59-0.2
		c-7.5-0.2-15.3-1.5-22.5-3.7c-12.8-3.9-20.5-13.3-23.4-26.3c-1.1-5.2-1.8-10.5-1.8-15.8c-0.2-29.6-0.1-59.3-0.1-88.9
		c0-0.3,0-0.7,0-1c0.6-28,15.3-43.4,43.3-44c23.3-0.5,46.7-0.2,70-0.2c3.3,0,6.5,0,10.5,0c0.3-6.7,0.6-12.6,0.9-19
		c21.3,0,42.1,0,63.9,0c0,46.1,0,91.9,0,138.3c29.9,0,58.7,0,88.5,0c0-39.2,0-78.4,0-117.2c7.8-2.2,44.1-2.8,61.4-1.1
		c0,39,0,78.2,0,118.2c31.7,0,62.4,0,94.2,0C7116.7,344.1,7116.7,259.1,7116.7,173z M6807.7,369.3c-17,0-33.6-0.5-50.1,0.2
		c-7.8,0.3-11.5,5.4-11.7,13.6c-0.3,11-0.3,22,0,33c0.2,8.5,4.4,13.6,12.6,13.9c16.2,0.6,32.5,0.2,49.2,0.2
		C6807.7,409.6,6807.7,389.9,6807.7,369.3z M7334.1,430c16.8,0,32.7,0.4,48.6-0.2c9.4-0.4,13.2-5.3,13.4-15.1
		c0.2-9.3,0.2-18.6,0-27.9c-0.2-12-4.3-16.1-16.3-16.2c-13.3-0.2-26.6-0.1-39.9,0c-1.9,0-3.7,0.5-5.8,0.9
		C7334.1,390.9,7334.1,409.7,7334.1,430z"/>
	<path class="st0" d="M1305.5,374.8c5.4-4,10.7-9.7,17.2-12.4c5.4-2.2,12.4-1.9,18.4-1c2.4,0.4,4.7,5.1,5.9,8.3
		c4.2,11.6,7.3,23.5,11.8,35c5.9,14.9,13.5,29,25.2,40.4c4.4,4.3,9.8,7.7,14.3,11.1c8.3-3.8,10.4-10,11-16.9c1-10.2-1-20-5.9-28.9
		c-4-7.3-8.4-14.4-13.3-21.1c-4-5.5-6.5-10.8-1.6-18.7c24.9,0,51,0,77.8,0c0-11.8,0-22.3,0-34c-3.7,0-7.2,0-10.8,0
		c-52.3,0-104.6,0-157,0c-4.8,0-10.5,0.5-12.1-4.7c-1.6-5.1-1.8-11.2-0.6-16.4c1.2-5.1,6.7-5.4,11.6-5.4c69,0.1,138,0.1,206.9,0.1
		c50.3,0,100.6,0,150.9,0c3.6,0,7.2,0,12.1,0c-0.8-4.3-1.3-7.5-2-10.6c-7.1-33.3,13.2-63.4,46.8-69.1c22.8-3.9,45-2.2,66.5,7.2
		c17.5,7.6,34.2,16.6,48.8,29c13.9,11.8,27.6,24,40.9,36.6c5.2,4.9,10.2,7.2,17.6,7.2c77.9-0.3,155.8-0.2,233.7-0.2
		c38.2,0,76.4,0,114.7,0c4.3,0,8.7-0.4,11.7,3.8c3.7,5.1,3.1,11,1.4,16.2c-1.5,4.4-5.8,6.8-11.3,6.5c-7.2-0.4-14.5-0.1-22.7-0.1
		c0,4.7,0,8.3,0,11.9c0,48-0.2,95.9,0.2,143.9c0.1,10.7-3.9,16.2-15.4,15.2c-5.6-0.5-11.3,0-17-0.1c-10.3-0.1-12.9-2.7-13-13
		c0-42.6,0-85.3,0-127.9c0-9.6,0-19.2,0-30.1c-18.2,0-35.5,0-54.2,0c0,4.3,0,7.8,0,11.4c0,47.6,0,95.2,0,142.9c0,2.3,0.1,4.7,0,7
		c-0.4,5.5-3.8,9.3-9.4,9.6c-8.6,0.4-17.3,0.4-26,0c-6.7-0.3-9.8-3.9-10-11c-0.2-10.3,0-20.5,0-31.6c-15.9,3.3-31.1,2.5-46.3,2.1
		c-35.5-1-70-36-65-77.3c7,0,14.3-0.7,21.4,0.2c10.5,1.3,17.9-2.1,20.3-12.2c1.3-5.6,0.9-11.8,0-17.6c-0.6-4.1-3-8.1-5.1-11.8
		c-4.2-7.7-9.7-12-19.7-11.5c-19.9,1-39.9,0.3-61.4,0.3c0,3.9,0,7.4,0,11c0,47.6,0,95.2,0,142.9c0,1.7,0,3.3,0,5
		c-0.3,8.3-3.2,11.6-11.3,11.8c-7.3,0.2-14.7,0.2-22,0c-8.2-0.2-11.3-3.3-11.3-11.6c-0.1-22.3,0-44.6,0-66.9c0-3.6,0-7.2,0-11.6
		c-13.1,0-25.6,0-39.5,0c0,6.4,0.1,12.9,0,19.4c-0.1,8.8-3.6,12.9-12.4,13.6c-13.7,1.1-26.6-0.1-35.9-12.5
		c-5.7-7.7-13.1-14.4-18-22.5c-8.7-14.4-2.2-25.4,14.7-26.6c2-0.1,3.9-0.3,6.5-0.5c0-16.8,0-33.3,0-50.7c-2.3-0.3-4.8-0.7-7.3-0.8
		c-11.2-0.6-22.5-1.6-33.7-1.5c-9.1,0.1-18.2,1.5-28.3,2.4c0,3.6,0,7.2,0,10.7c0,47.3,0,94.6,0,141.9c0,2.3,0.1,4.7,0,7
		c-0.4,6.2-3.7,9.8-9.9,10.1c-8,0.3-16,0.3-24,0.1c-8.2-0.2-11.3-3.4-11.4-11.7c-0.1-15,0-30,0-45c0-34,0-67.9,0-101.9
		c0-3.6,0-7.3,0-11.6c-18.8,0-36.9,0-56.2,0c0,3.9,0,7.4,0,11c0,47.3,0,94.6,0,141.9c0,2,0.1,4,0,6c-0.3,8.1-3.3,11.1-11.7,11.3
		c-6.3,0.2-12.7-0.4-19,0.1c-10,0.9-14.6-4.2-14.4-14c0.6-27.3,0.2-54.6,0.2-81.9c0-21.3,0-42.6,0-63.9c0-3.3,0-6.5,0-10.7
		c-18.6,0-36.4,0-55.6,0c0,3.9,0,7.4,0,10.9c0,47.6,0,95.2,0,142.9c0,2.3,0.1,4.7,0,7c-0.4,5.5-3.8,9.3-9.4,9.5
		c-8.6,0.4-17.3,0.4-26,0c-6.9-0.3-9.9-4.3-10-12.1c-0.1-18,0-36,0-53.9c0-14.6,0-29.2,0-44.4c-7.9,0-15.1,0-23.7,0
		c1.4,3.8,2.6,7.3,4,10.8c4.2,11.3,7.5,22.7,6.5,35c-1.8,21.3-19,38.6-40.3,40.1c-9.6,0.6-19.3,0.4-28.9-0.4
		c-9.8-0.8-18.9-4.4-26.6-10.5c-5.5-4.3-10.9-8.9-15.3-14.2c-18.9-23.1-29.8-50.1-36.8-78.9C1305.4,377.7,1305.5,376.6,1305.5,374.8
		z M1711.9,310c35.2,0.9,70-0.2,106.6,0.3c-2.3-2.9-3.2-4.5-4.6-5.7c-16.7-15.9-35.8-28.4-56.4-38.8c-6.4-3.3-13.7-4.8-20.6-7.3
		c-4.1-1.5-7.6-0.6-11.4,1.2c-9.9,4.6-15.4,12.5-17,23C1707.2,291.5,1707.5,300.4,1711.9,310z M2068.4,337.2c-11,0-20.5,0-31.4,0
		c7.6,15.8,13,31.2,7,47.8c-6.2,17-19.4,26.2-36.7,30.7c4.7,12.8,12.2,21.1,24,24.9c2.9,0.9,6.6,1,9.5,0.1c8-2.6,15.1-6.8,20.7-13.3
		c4.7-5.4,7.4-11.2,7.1-18.9c-0.7-14.9-0.2-29.9-0.2-44.9C2068.4,355,2068.4,346.4,2068.4,337.2z M1867.4,388.1
		c0-17.4,0-33.9,0-50.9c-13,0-25.4,0-37.8,0c-2,13.4-1.5,43.9,0.8,50.9C1842.3,388.1,1854.3,388.1,1867.4,388.1z"/>
	<path class="st1" d="M8189.8,310.8c50.4,0,99.4-0.7,148.3,0.3c25.4,0.5,38.3,15.1,40.4,40.5c0.2,2.3,0.3,4.7,0.3,7
		c0,28,0.1,55.9,0,83.9c0,4.3-0.4,8.7-1,12.9c-2.3,17.2-12.3,28.8-29.1,32.7c-6.1,1.4-12.5,2.2-18.8,2.2
		c-203.2,0.1-406.5,0.1-609.7,0c-5,0-10-0.5-14.9-1.4c-21.7-4.3-32.7-17.3-33.6-39.6c-0.3-8.6-0.1-17.3-0.1-26c0-21,0-42,0-62.9
		c0-2.3,0-4.7,0-7c0.5-26.7,15.3-42.1,42.2-42.9c18.3-0.6,36.6-0.2,55-0.2c8.6,0,17.2,0,26.6,0c0.3-6.6,0.6-12.5,0.9-18.9
		c21.1,0,41.9,0,63.7,0c0,46.1,0,91.8,0,138.3c38.8,0,76.5,0,115.3,0c-1.7-2.4-2.9-4.6-4.5-6.5c-10.5-12.1-21.2-24-31.5-36.2
		c-3.8-4.5-7.5-9.4-10.2-14.7c-7.5-14.7-5-30.6,6.3-42.5c11.5-12.1,25.7-18.9,42.6-18.9c26.7-0.1,53.3-0.1,80,0
		c16.9,0,31,6.8,42.6,18.9c11.7,12.3,14.1,28.2,6,43.3c-3.1,5.8-7.4,11.1-11.7,16.1c-11.2,13.2-22.7,26.1-34.2,39.3
		c7.3,2.4,102.2,3.2,128.7,1.2c0.9-9.6,0.3-19.5,0.4-29.3c0.1-10,0-20,0-30c0-9.7,0-19.3,0-29
		C8189.8,331.7,8189.8,321.8,8189.8,310.8z M7795.3,430.4c0-20.9,0-40.7,0-61.3c-16.7,0-32.9-0.4-49.1,0.2
		c-8.9,0.3-12.6,5.2-12.8,14.6c-0.2,10.3-0.2,20.6,0,30.9c0.2,10.6,4.4,15.3,15.1,15.5C7763.8,430.7,7779.1,430.4,7795.3,430.4z
		 M8253.8,430.2c9.8,0,18.4,0,26.9,0c7,0,14,0.3,20.9-0.2c8.7-0.7,13.4-4.9,13.8-12.8c0.5-11.3,0.4-22.6,0-33.8
		c-0.3-7.4-4.5-12.2-11.7-12.4c-16.5-0.5-33-0.2-49.9-0.2C8253.8,390.8,8253.8,409.9,8253.8,430.2z M8042.4,366.2
		c-9.3,0-16.2,0-23.2,0c-7,0.1-14.1,0.2-22.7,0.4c7.9,11.9,14.6,22.1,22,33.2C8026.5,388.5,8033.7,378.3,8042.4,366.2z"/>
	<path class="st1" d="M8637.6,943.9c-2.2-13.5-8.3-23.2-19.2-29.7c-8.2-4.8-17.2-7.1-26.6-7.9c-34.5-2.9-66.9,3.7-96.4,22.5
		c-0.8,0.5-1.8,0.9-3.7,1.9c-14.3-29.6-28.6-59-43.4-89.6c10.3-5.1,19.5-10.5,29.3-14.3c47.6-18.6,96.9-25.6,147.9-21.2
		c22.7,2,44.8,6.3,65.9,14.9c46.2,18.9,72.6,53.5,80.1,102.6c2,13.1,3.2,26.5,3.3,39.7c0.4,55.6,0.2,111.2,0.1,166.8
		c0,2.9-0.3,5.8-0.6,9.3c-42,0-83.4,0-126.1,0c0-12.7,0-25,0-38c-1.8,1-2.5,1.1-2.8,1.6c-14.5,25.1-37.6,36.9-65.2,41.1
		c-23.6,3.6-47.3,2.7-70.3-3.7c-36-10.1-62.1-31.4-73.1-68.3c-5.5-18.6-5.4-37.5-0.4-56.2c6.2-23.1,20.7-39.8,41.7-51.1
		c19.6-10.6,40.9-16.5,62.9-17.8c28.2-1.7,56.5-1.7,84.8-2.4C8629.5,943.8,8633.1,943.9,8637.6,943.9z M8637.6,1009.6
		c-16.6,0.3-33.5-1.2-50.3,1.3c-3.2,0.5-6.4,1.7-9.5,3c-9.1,4-13.7,11.2-14.3,21c-0.7,13.1,7.1,23.4,20.4,27
		C8617.2,1071,8643.9,1045.5,8637.6,1009.6z"/>
	<path class="st1" d="M1906.3,943.9c-2.5-15-9.4-25.6-22.2-31.1c-7.8-3.4-16.5-5.7-24.9-6.4c-34.2-3.1-66.2,4-95.3,22.6
		c-0.8,0.5-1.8,0.8-3.6,1.6c-14.2-29.3-28.3-58.5-43-88.8c3.4-2.1,6.4-4,9.5-5.7c25.7-14.1,53.5-21.8,82.2-26.8
		c42.1-7.3,84.2-7.4,125.9,3c9.3,2.3,18.5,5.5,27.4,9.2c44.7,18.6,70,52.6,77.8,99.9c2.2,13.1,3.4,26.5,3.5,39.7
		c0.4,56.6,0.2,113.2,0.2,169.8c0,2.3-0.2,4.6-0.4,6.8c-7.3,2.4-101.1,3.3-125.8,1.2c-1.6-12.2,0.1-24.8-1-37.7
		c-1.1,0.6-2.2,0.9-2.5,1.5c-14.6,25.1-37.7,36.7-65.3,40.9c-23.6,3.6-47.3,2.7-70.3-3.8c-35.5-10.1-61.5-31.1-72.6-67.6
		c-5.6-18.6-5.6-37.5-0.8-56.2c5.7-22,19-38.5,38.7-50c20.2-11.8,42.4-18.1,65.4-19.6c28.5-1.9,57.2-1.8,85.8-2.5
		C1898.3,943.8,1901.6,943.9,1906.3,943.9z M1908.4,1010.4c-18,0-33.9-0.1-49.8,0.1c-2.9,0-5.9,1.2-8.7,2.1
		c-11.1,3.8-17.1,11.6-17.5,22.9c-0.4,11.4,5.4,20.4,16.2,25c21.7,9.2,49.2-1.8,56.9-23.9
		C1908.2,1028.7,1907.5,1019.7,1908.4,1010.4z"/>
	<path class="st1" d="M5637.9,943.9c-2.4-15-9.4-25.5-22.1-31.1c-7.5-3.3-15.8-5.6-23.9-6.4c-34.5-3.3-66.9,3.7-96.3,22.5
		c-0.8,0.5-1.8,0.8-3.6,1.7c-14.2-29.3-28.3-58.5-43-88.8c3.4-2,6.3-4,9.4-5.7c25.7-14.1,53.5-21.8,82.2-26.8
		c42.1-7.3,84.2-7.4,125.9,2.9c9,2.2,17.9,5.2,26.5,8.8c45.8,19,71.8,53.6,79,102.2c2.1,13.8,3.2,27.8,3.3,41.7
		c0.4,54.6,0.2,109.2,0.1,163.8c0,3.2-0.3,6.5-0.5,10.1c-42.2,0-83.6,0-125.9,0c0-12.7,0-25,0-38c-1.8,0.9-2.8,1.1-3.2,1.7
		c-14.6,25.1-37.7,36.8-65.3,40.9c-23.6,3.6-47.3,2.7-70.3-3.8c-35.9-10.2-62-31.5-72.9-68.5c-5.4-18.3-5.3-36.9-0.5-55.2
		c5.3-20.5,17.3-36.5,35.2-47.9c16.8-10.8,35.5-16.3,55-20c25.7-4.8,51.7-4.3,77.7-4.3C5615.4,943.9,5626.3,943.9,5637.9,943.9z
		 M5638.1,1009.8c-17.6,0.2-35.4-2-53.1,1.9c-2.3,0.5-4.5,1.3-6.6,2.2c-9.1,4-13.8,11.1-14.4,20.9c-0.8,13.1,7,23.4,20.3,27.1
		C5617.3,1071,5643.9,1045.9,5638.1,1009.8z"/>
	<path class="st1" d="M7387.3,1139c-42.3,0-83.4,0-125.7,0c0-12.9,0-25.3,0-38.8c-2,1.5-2.9,1.9-3.3,2.6
		c-14.1,24.4-36.5,36.2-63.4,40.5c-26.3,4.2-52.6,3.1-78-5.3c-34.9-11.6-58.9-34.2-68.1-70.7c-4.6-18.2-4-36.3,1.5-54.2
		c6.6-21.8,20.7-37.7,40.5-48.5c19.6-10.7,40.8-16.6,62.9-18.1c27.9-1.8,55.9-1.8,83.8-2.5c3.9-0.1,7.9,0,13,0
		c-1.9-13.6-8.2-23.2-19-29.7c-8.1-4.9-17.2-7.1-26.6-7.9c-34.5-2.9-66.9,3.7-96.4,22.5c-0.8,0.5-1.7,0.9-3.8,1.9
		c-14.3-29.6-28.6-59-43-88.8c13.7-9,27.9-15.4,42.8-20.2c57.6-18.7,115.9-23.4,175.2-9.2c21.2,5.1,40.9,14,58.4,27.3
		c25.4,19.3,39.3,45.7,45.3,76.4c2.5,13,4.1,26.4,4.2,39.6c0.5,58.6,0.2,117.2,0.2,175.8C7387.8,1133.7,7387.5,1136,7387.3,1139z
		 M7250.7,1010.7c-16.5,0-33-0.2-49.5,0.2c-3.8,0.1-7.8,1.9-11.3,3.6c-6.6,3.2-10.9,8.4-12.5,15.8c-3.2,15.1,4.7,27.8,19.8,31.8
		C7230.7,1070.8,7256.7,1045.8,7250.7,1010.7z"/>
	<path class="st1" d="M3147.1,930.3c-14.2-29.3-28.3-58.5-43-88.7c4.3-2.5,8.1-4.9,12.1-7c25.6-13.4,53.2-21,81.5-25.7
		c38.8-6.5,77.6-6.7,116.2,1.5c24,5.1,46.4,14.1,66.2,29c25.5,19.2,39.5,45.6,45.6,76.2c2.6,13.3,4.2,27,4.3,40.6
		c0.5,58.6,0.2,117.2,0.2,175.8c0,2-0.2,4-0.3,5.9c-7.1,2.1-107.4,2.9-125.5,0.9c0-12.3,0-24.7,0-38.1c-2,1-3.1,1.2-3.4,1.8
		c-14.1,24.4-36.3,36.5-63.2,40.8c-26.7,4.3-53.3,3.3-79-5.4c-34.4-11.6-58.3-34-67.5-70.1c-4.6-18.2-4.1-36.3,1.2-54.2
		c6.5-21.9,20.4-37.8,40.2-48.8c19.8-11,41.4-16.9,63.8-18.4c26.2-1.7,52.6-1.7,78.8-2.4c5.3-0.1,10.6,0,17.5,0
		c-1-4.2-1.4-7.6-2.7-10.8c-4.8-11.9-13.7-19.3-25.8-23.2c-17.9-5.8-36.2-5.3-54.4-2.8c-21.3,2.9-41.4,9.8-59.5,21.9
		C3149.8,929.5,3148.8,929.7,3147.1,930.3z M3294,1010.2c-16.4,0-31.6-0.1-46.9,0.1c-3.2,0-6.5,1.1-9.7,2.1
		c-11.6,3.6-17.7,11.6-18.3,23.3c-0.5,11.1,5.6,20.3,16.4,24.8c19.4,8.1,44-0.5,54.6-18.7C3296,1031.9,3293.9,1021.4,3294,1010.2z"
		/>
	<path class="st1" d="M1455.5,825.5c-47.3,0-94.4,0-142,0c0-36,0-70.8,0-105.6c7.9-2.2,249.8-3.2,282.2-1.1c0.3,2.3,0.8,4.8,0.8,7.3
		c0,86.2,0,172.5-0.1,258.7c0,22.4-3.2,44.5-10.3,65.8c-15,45.5-46,75.3-91.7,88.3c-55,15.7-110,14.2-163.6-7.2
		c-24.5-9.7-45.5-24.6-63.4-45.5c25.3-29.8,50.4-59.5,77.2-91.3c1.9,3,3.1,5.9,5.2,7.9c8.8,8.1,17.2,16.8,26.9,23.7
		c14.1,10.1,30.2,13.4,47.5,9.6c13.4-3,23-10.6,27.5-23.5c2.4-6.8,4.2-14.2,4.3-21.4c0.4-53.6,0.3-107.2,0.3-160.8
		C1456.3,829.2,1455.9,827.9,1455.5,825.5z"/>
	<path class="st1" d="M5271.3,310.4c0.4-7,0.7-12.9,1-19.1c21.2,0,41.7,0,63.2,0c0,46,0,91.8,0,137.3c8.1,2.3,66.7,3,88.5,1.2
		c1.3-9.6,0.4-19.4,0.6-29.2c0.2-10,0-20,0-30c0-9.7,0-19.3,0-29c0-9.9,0-19.8,0-30.3c20.8,0,40.6,0,61.3,0c0,39.6,0,78.7,0,118.5
		c31.4,0,61.9,0,93.6,0c0-39.4,0-78.8,0-118.7c4.1-0.2,7-0.4,9.9-0.4c43.3,0,86.6-0.1,129.9,0.1c5.6,0,11.3,0.6,16.8,1.7
		c20.1,4.3,30.9,17.2,31.8,37.8c0.3,7,0.2,14,0.2,21c0,23,0,45.9,0,68.9c0,4.7,0.1,9.3-0.4,14c-1.8,17.9-12.4,30.3-30,34.3
		c-6.1,1.4-12.5,2.1-18.8,2.1c-174.3,0.1-348.5,0.1-522.8,0c-5.9,0-12-0.7-17.8-1.9c-18.3-4-28.8-16.2-30.6-34.7
		c-0.3-3.3-0.4-6.6-0.4-10c0-29,0.4-57.9-0.1-86.9c-0.7-34.9,20.8-46.4,45.9-46.5c22.3,0,44.6,0,67,0
		C5263.5,310.4,5266.8,310.4,5271.3,310.4z M5271.2,430.4c0-20.9,0-40.6,0-61.3c-16.7,0-33-0.4-49.2,0.2c-8.5,0.3-12.6,4.9-13,13.5
		c-0.5,11-0.5,22-0.1,32.9c0.4,9.9,5,14.4,15.2,14.6C5239.5,430.7,5254.8,430.4,5271.2,430.4z M5643.3,430c16.7,0,32.6,0.4,48.5-0.2
		c8.6-0.3,13-4.9,13.4-13.3c0.5-10.9,0.5-22,0-32.9c-0.4-8.4-5-12.8-13.5-13c-15.9-0.4-31.9-0.1-48.4-0.1
		C5643.3,390.4,5643.3,409.5,5643.3,430z"/>
	<path class="st1" d="M6423.2,1023.2c24.1,13.5,48.8,21.2,74.5,25.8c19.5,3.5,39.1,4.2,58.7,2.7c5.8-0.4,11.7-2.4,17.2-4.7
		c4.1-1.7,6.7-5.4,6.5-10.4c-0.2-5.1-3.6-8-7.9-9.2c-8-2.2-16.1-4.3-24.3-5.4c-26-3.5-52.3-5.6-77.9-12.1
		c-13.6-3.5-26.7-8.2-38.8-15.5c-23.8-14.5-36.7-35.7-39.7-63.5c-4.7-44.8,14.2-77.3,51.7-100.1c22.9-13.9,48.1-21.2,74.4-24.3
		c46.5-5.4,92.5-2.3,137.7,9.8c12.7,3.4,24.9,8.8,38.6,13.7c-12.8,30.7-25,60.1-37.5,90.3c-3.1-1.4-5.7-2.4-8.2-3.7
		c-34.4-16.9-70.8-22.5-108.7-18.5c-5.5,0.6-10.9,2.8-16,5.1c-4,1.8-7,5.3-6.5,10.3c0.5,4.5,3.6,7.4,7.5,8.5
		c8.3,2.3,16.7,4.5,25.2,5.9c22.7,3.6,45.5,6.3,68.1,10.3c15.8,2.8,30.8,8.4,44.8,16.4c27.9,15.9,41.4,40.5,42.9,72
		c1.7,35.9-13.3,63.9-41.7,84.9c-22.7,16.8-48.8,25.8-76.5,29.8c-58.3,8.5-115.5,3.1-171.5-15.5c-7.2-2.4-14.2-5.7-21.2-8.7
		c-2.7-1.2-5.2-2.8-8.6-4.6C6398.3,1083,6410.5,1053.7,6423.2,1023.2z"/>
	<path class="st1" d="M5981.8,172.8c0,86.1,0,171.3,0,257c27.4,0,53.9,0,81.6,0c1-39.3-0.2-78.7,0.6-118.5c20.6,0,40.4,0,61.2,0
		c0,39.5,0,78.7,0,118.5c18.4,0,35.9,0,54.8,0c0.3-19.7,0.1-39.5,0.2-59.3c0-19.6,0-39.1,0-59.2c20.9,0,40.7,0,61.5,0
		c0,39.5,0,78.6,0,119.1c13.8-0.3,26.6,1.4,39.3-1.4c10-2.2,15.3-9,16.7-18.8c0.5-3.6,0.5-7.3,0.5-11c0-25.6,0-51.3,0-76.9
		c0-3.3,0-6.6,0-11c10.3-1.1,20.2-0.4,30-0.5c10-0.1,19.9,0,30.7,0c0.3,2.9,0.9,5.5,0.9,8c0,37.6,0,75.3,0,112.9
		c0,3.7-0.1,7.4-0.6,11c-4.4,29.6-21.7,45.4-52.5,47.7c-4.3,0.3-8.7,0.3-13,0.3c-163.6,0-327.2,0-490.8,0c-3.6,0-7.1,0-11.2,0
		c0-20.3,0-39.5,0-59.8c42.2,0,84.3,0,127.3,0c0-86.2,0-171.3,0-256.3c1.6-0.8,2.5-1.6,3.3-1.6
		C5941.6,172.8,5960.9,172.8,5981.8,172.8z"/>
	<path class="st1" d="M6806.8,693.3c45.2,0,89.7,0,134.8,0c0,148.5,0,296.5,0,444.6c-6.8,2-121.6,2.6-134.8,0.6
		C6806.8,990.5,6806.8,842.5,6806.8,693.3z"/>
	<path class="st1" d="M4938.3,693.3c45.1,0,89.6,0,134.8,0c0,148.5,0,296.5,0,444.6c-6.8,1.9-120.9,2.5-134.8,0.6
		C4938.3,990.5,4938.3,842.5,4938.3,693.3z"/>
	<path class="st1" d="M4815.9,693.4c0,148.7,0,296.8,0,445.4c-45,0-89.5,0-134,0c-2-7-2.5-432.7-0.5-445.4
		C4725.8,693.4,4770.3,693.4,4815.9,693.4z"/>
	<path class="st1" d="M6140.3,718.7c47.2,0,93.7,0,140.8,0c0,140,0,279.7,0,419.3c-7,1.9-127.7,2.4-140.8,0.5
		C6140.3,999,6140.3,859.3,6140.3,718.7z"/>
	<path class="st1" d="M8579.8,369.9c0-20.6,0-39.8,0-60c3.8,0,7,0,10.3,0c44.3,0,88.7-0.1,133,0.1c7.9,0,16.1,0.7,23.7,2.7
		c15.4,3.9,24.2,14.5,26.9,30.1c0.7,4.3,1.3,8.6,1.3,12.9c0.2,42.6,0.2,85.3,0.3,127.9c0,1.6-0.2,3.3-0.4,6.2
		c-3.5,0.2-7.1,0.4-10.6,0.4c-63.3,0-126.7,0-190,0c-28.3,0-56.7,0.5-85,0.1c-8.9-0.1-18-1.4-26.5-3.7c-18-4.9-28.7-17.5-32.9-35.4
		c-1.4-6.1-2.1-12.5-2.2-18.8c-0.1-83.6-0.1-167.2-0.1-250.8c0-2.6,0-5.2,0-8.3c20.7,0,40.6,0,61.8,0c0,3.6,0,7.1,0,10.6
		c0,70.6,0,141.2,0,211.8c0,2.7,0,5.3,0,8c0.4,16.5,8.9,25.7,25.3,25.7c63.3,0.2,126.7,0.1,190,0.1c1.6,0,3.2-0.4,6.2-0.8
		c-0.6-14.3,1.4-28.6-1.9-42.6c-2-8.5-8.1-13.7-16.7-15.3c-4.2-0.8-8.6-0.8-12.9-0.8c-29.7-0.1-59.3,0-89,0
		C8587.2,369.9,8583.9,369.9,8579.8,369.9z"/>
	<path class="st1" d="M8193.8,1138.8c0-109.4,0-218.4,0-328c45,0,89.5,0,134.8,0c0,109.2,0,218.2,0,328
		C8283.9,1138.8,8239.1,1138.8,8193.8,1138.8z"/>
	<path class="st1" d="M5329,1139c-45.2,0-89.7,0-134.8,0c0-109.5,0-218.5,0-328.1c44.8,0,89.4,0,133.9,0
		C5330.1,817.9,5331,1117.2,5329,1139z"/>
	<path class="st1" d="M4559.7,1139c-45.1,0-89.6,0-134.7,0c0-109.5,0-218.5,0-328.1c44.8,0,89.3,0,133.8,0
		C4560.9,817.9,4561.7,1118.6,4559.7,1139z"/>
	<path class="st1" d="M2849.2,810.5c45.2,0,89.5,0,133.7,0c2.2,7.4,3.1,306.6,1.1,327.3c-6.7,2-121.1,2.7-134.8,0.6
		C2849.2,1029.5,2849.2,920.5,2849.2,810.5z"/>
	<path class="st0" d="M433.3,125.1c43.1,0,86.2,0,130.3,0c14.3-42.1,28.3-83.5,42.3-125c0.7-0.1,1.4-0.1,2.2-0.2
		c14.3,40,28.7,80,43.2,120.4c44.1,1.6,87.6,3.2,131.9,4.8c-1.3,4.9-5,6.7-7.9,9c-20.3,15.7-40.6,31.3-60.9,46.9
		c-7.7,5.9-15.3,11.8-22.9,17.8c-8.9,7-9,7.2-5.8,18.5c4.6,16.7,9.3,33.3,14,50c6.1,21.8,12.2,43.5,18.2,65.3c0.6,2.2,1,4.4,2,8.8
		c-39.9-26.4-76.7-54-115.6-80.7c-36.1,26.8-72,53.5-108,80.3c-0.5-0.3-0.9-0.7-1.4-1c0.9-3.4,1.7-6.9,2.7-10.3
		c11.3-37.2,22.6-74.4,33.9-111.7c3.3-11,3.2-11-6-18.1c-28.2-21.7-56.5-43.4-84.7-65.2c-3-2.3-5.6-5-8.4-7.5
		C432.7,126.5,433,125.8,433.3,125.1z M681.1,191.7c1.8-0.4,3.5-0.3,4.1-1.1c5-5.8,10.3-11.4,14.4-17.8c4.7-7.3,1.2-12.8-7.4-11.6
		c-6.8,0.9-13.4,3.6-20.1,5.5c-3.6,1.1-7.1,2.4-12.6,4.2c7.1-15.1-3.3-22.3-8.6-32.4c-9.4,12.2,3,22.4,1,33.7
		c-3.2,0.9-6.3,1.8-9.4,2.8c-7.6,2.5-15.1,5-22.6,7.6c-4.4,1.5-5.7,4.9-5.8,9.4c-0.1,5.5,2.7,9.4,6.2,13.1
		c5.9,6.2,11.1,12.8,14.6,22.9c-5.9,0.3-10.7,1.6-14.8,0.6c-4.6-1.2-8.8-4.4-13-6.8c-7.6-4.3-3.5-12.9-6.5-19.3
		c-1.8,0.1-4.3-0.3-4.8,0.4c-1.8,2.9-3,6.3-4.7,10.2c-3.1-0.7-6.3-1.5-9.5-2.1c-4.5-0.8-8.3,1.8-8.4,6c0,1.9,0.7,3.9,1.4,5.7
		c3.7,10.4,3.8,10.9-4.3,17.9c-6.6,5.6-13.7,10.5-20.5,15.8c-2.2,1.7-5.7,2.7-4.2,7.9c8,0.4,14.7-3.6,21.6-7.2
		c11.7-6.1,17.4-15.9,17.2-28.8c2.6-0.7,4.1-1.4,5.7-1.6c1.9-0.2,3.9-0.1,5.6-0.1c9.7,15.1,19.7,19.4,36.4,16.1
		c7.4-1.5,9.5-3.8,9.9-11.4c0.4-9.2-1.2-17.8-7.4-25.2c-3.5-4.2-7.4-8.5-7.5-15.3c8.8-5.2,18.1-7.6,28-8.2
		c4.7,15.9,5.1,32,12.3,47.8c6.3-18-2.8-32.8-4.3-48.7c9.1-5.2,17.8-11,29-9.4C692.7,181.8,679,181.6,681.1,191.7z M623.1,117.6
		c-0.2,6.9-2.3,13.4,6.8,16.6c4,1.4,6.1,13.2,4.6,17.5c-1.2,3.3-3.6,4.1-6.3,2.5c-2.8-1.6-5.3-3.9-7.7-6.2c-2.3-2.2-4.3-4.7-6.8-7.5
		c-7.1,18.7-7.1,18.7-16.2,20.1c-7-10,1.1-24.1-9.5-34.4c-2.6,3.1-5,5.7-7,8.6c-2.5,3.5-4.5,7.4-7.2,10.8c-1.6,2-3.8,4.2-6.1,4.8
		c-1.9,0.5-4.4-1.4-7.7-2.6c0.8,4.9,1.5,9,2.1,13c12.8-0.8,15.1-14.1,25.3-18.8c0.4,4.2,0.5,7.5,1.1,10.6c0.8,4.6,1.5,9.3,3.2,13.5
		c3.4,8.4,9.6,9.7,16.5,3.8c2.7-2.3,5-5.2,7.8-8.1c2.1,1.3,4.2,2.3,5.9,3.8c9,7.2,19.9,1.2,22.1-9.1c0.7-3.2,0.9-6.9-0.1-9.9
		c-2.5-7.9-5.4-15.7-8.7-23.3C633.4,118.9,629.9,115.6,623.1,117.6z M653.9,259.7c0.9,0.1,1.8,0.3,2.7,0.4c0.7-2.8,1.9-5.6,1.9-8.4
		c0-8.6-0.3-17.2-1-25.8c-0.6-7.9-1.9-15.7-2.7-23.6c-0.6-6.4-3.7-11-9.1-14.5c-3.7,4.8-2.4,9.5-1.4,14.4c2.3,12,4.4,24,6.5,36
		C652,245.5,652.9,252.6,653.9,259.7z M551.9,211.5c12.4,2,14.5-0.5,15.1-16.7c3.3-1.7,6.8-3.5,10.2-5.4c3.7-2.1,7.5-4.2,11-6.7
		c2.7-2,3.5-4.6,0.6-7.8c-1.1,0.3-2.5,0.3-3.6,0.9c-7.5,4.1-14.8,8.6-22.4,12.5c-4.8,2.4-6.5,6.2-7,10.9c1.6,1.9,3.2,3.7,4.9,5.8
		C557.5,207.4,555,209.2,551.9,211.5z M611.6,111.6c-4.4,0.7-7.5,1.2-10.3,1.6c-1-3.3-2.1-6.6-3.5-11.1c-5.1,10.6-4.7,14.5,1.5,21.4
		c4.2-3.8,9.2-2.8,13.8-1.1c6.8-9.2,6.7-13-0.6-19.4c-0.2,1.5-0.3,2.8-0.5,4.1C611.9,108.7,611.7,110.3,611.6,111.6z M602.6,254.4
		c0.3-4.4-3.2-7.7-8.1-8c-4.5-0.2-7.9,3-8.2,7.9c-0.3,4.1,3.6,8,8,8.3C598.4,262.7,602.3,258.8,602.6,254.4z M584.7,105.9
		c-9.7,4.7-10.6,10.7-3.2,19.1C588.4,120.1,588.8,117.9,584.7,105.9z M604.1,87c-3.5,8.5-3.3,9.7,1.9,14.4
		C609.5,92.9,609.3,91,604.1,87z"/>
	<path class="st0" d="M6469.8,490.3c-20.4,0-40,0-59.5,0c-2-7.3-2.5-303.3-0.6-317c19.7,0,39.6,0,60.1,0
		C6469.8,278.6,6469.8,384,6469.8,490.3z"/>
	<path class="st0" d="M779.7,1125.3c6.8-2.7,12.6-5,19.3-7.6c5.5,14.4,10.7,28.3,16.3,43.3c19-9.5,37.4-18.6,56.7-28.3
		c-12.5-23.6-27.7-44.6-40.6-67.8c5.4-5,10.5-9.6,16.6-15.2c15.7,22,28,45.1,42.6,67.6c12.9-6.9,22.9-16.5,35.1-24.8
		c-8.5-12.9-16.4-25-24.7-37.6c23.8-24.7,47-48.9,71.2-74c16.4,15.1,32.3,29.6,48.8,44.6c-2.6,3.7-4.6,7.1-7.2,10
		c-18.3,20.7-36,41.9-56.6,60.5c-56.6,51.1-121.9,86.4-194.9,108c-40,11.9-80.9,19.1-122.4,23.4c-2.6,0.3-5.3,0-8.8,0
		c0.9-3,1.5-5.7,2.6-8.3c13.5-31.1,27.1-62.2,40.6-93.4c1.7-4,3.9-6.9,8.5-7.3c8.9-0.8,17.8-1.7,27.9-2.7c9,24,17.9,47.8,27.3,72.8
		c19.1-4.1,36.4-11.5,55.2-17.6C788.7,1155.8,784.4,1141.2,779.7,1125.3z M940.9,1079.3c17.5-17.9,33.7-34.4,50.5-51.6
		c-6.3-6-11.7-11.1-17.7-16.8c-16.2,15-31.6,29.4-47.8,44.5C930.8,1063.2,935.3,1070.4,940.9,1079.3z M695.8,1142.9
		c-6.8,7.5-27.6,48.8-28.7,57.3c14.9-2.3,29.5-4.5,45.6-7C707.5,1175.4,702,1159.2,695.8,1142.9z"/>
	<path class="st1" d="M5262.8,644.4c11.4,2.1,23.3,2.8,34.1,6.4c26.4,8.8,43.8,26.4,46.6,55.2c2.9,29.4-11.5,55.2-37.5,68.2
		c-18.4,9.3-38.1,11.1-58.4,8.7c-17.7-2.1-33.6-8-46.7-20.4c-30.1-28.4-27.6-75.3,5.2-100.5C5222.9,649.5,5242.1,645.4,5262.8,644.4
		z"/>
	<path class="st1" d="M8262.6,644.5c11.1,2,22.5,2.9,33.2,6.1c27.6,8.2,45.5,29.8,47.5,55.6c2.4,29.9-12,55.6-38.6,68.6
		c-18.5,9-38.2,10.7-58.5,8.1c-17.3-2.2-32.9-8.2-45.7-20.3c-30-28.4-27.5-75.3,5.5-100.5C8222.7,649.4,8241.9,645.4,8262.6,644.5z"
		/>
	<path class="st1" d="M4493.4,645.8c12.9-0.2,25.5,1.2,37.4,5.9c23.3,9.2,39.7,24.7,43.2,50.3c3.9,28.4-5.4,51.9-29.8,68.2
		c-18.9,12.6-40.2,15.1-62.3,13.2c-15.1-1.3-29.3-5.6-42-14.3c-38.8-26.4-39.2-86.2,4.8-111.9
		C4459.8,648.4,4476.3,645.4,4493.4,645.8z"/>
	<path class="st1" d="M2921,645.7c11-0.2,24.4,1.7,37.2,7.1c54,22.6,49.6,87,16.3,113c-20.5,16-43.9,19.7-68.8,17.5
		c-15.5-1.3-29.8-6-42.8-15.1c-37.1-26.1-37.8-84.4,4.6-110.3C2881.5,649.4,2897,645.6,2921,645.7z"/>
	<path class="st0" d="M1037.7,1000.5c-5.2-13.6-9.6-25-13.9-36.5c-8.5-22.7-16.9-45.5-25.6-68.2c-2.5-6.4-2.6-12.1,1.2-18
		c3-4.8,5.3-9.9,8.5-15.8c3.8,1.3,7.5,2.3,11.1,3.7c14.5,5.9,28.9,12,43.4,17.8c3.9,1.6,8.1,2.5,13.4,4.1c4-11.6,7.8-22.5,12-34.8
		c-13.9-4.6-27-8.9-40.1-13.2c-0.8-7.4,14.9-79.8,19.7-90c6.1,1.6,12.4,3.2,19.5,5c-1.9,10.1-3.6,19.5-5.5,28.9
		c-2.1,10.8-4.5,21.5-6.5,32.3c-1.4,7.3-0.6,8.4,6.8,10.5c2.2,0.7,4.5,1.3,6.8,1.8c1.9,0.4,3.9,0.6,5.7,0.9
		c8.7-14.5,20.3-76.1,20.5-109.6c-13.6-2.6-27.5-5.3-41.1-7.9c-2.8-7.9-5.6-79.2-3.4-89.4c19.3-0.5,38.9-1,58.5-1.5
		c4.6,8.1,4.4,16.6,5.2,24.7c10,94.2-7.7,183.6-48.2,268.7c-12,25.2-26.3,49.3-39.7,73.8C1044.2,991.6,1041.5,994.9,1037.7,1000.5z
		 M1116.8,696.3c0-19,0.4-36.4-0.6-54.5c-9.7-0.6-18.2-1.1-28-1.7c0.8,18.8,1.6,36.2,2.3,54.2C1099.3,695,1107.2,695.6,1116.8,696.3
		z M1064.8,913.9c-15.8-7-30.4-13.5-45-20c-0.5,0.6-1,1.1-1.5,1.7c7.7,19.3,15.3,38.6,25,59.2
		C1050.8,940.4,1057.3,928.1,1064.8,913.9z"/>
	<path class="st0" d="M70.9,508.2c-1.9,8.7-3.5,16-5.3,24.6c-22.3-6.3-43.8-12.7-65.6-20.6c10.4-45.7,25.5-88.7,48.6-130
		c20.6,7.1,39.3,17.7,60.2,26.1c-2.8,6.8-5.2,12.8-8,19.8c-14.4-6.4-28-12.3-42.4-18.7c-15.6,28.3-27,57.1-35.4,88.4
		c8.2,3.3,16.1,6.5,24.7,10c3.1-9.5,5.8-18,8.9-27.6c32.8,9.3,65.2,18.6,99.1,28.3c-2.2,6.9-4.3,13.3-6.4,19.9
		c-14.6-0.5-26.1-9.9-40.3-10.2c-3.5,10.6-5,20.9-4.8,32.6c11.3,2.6,22.5,5.2,34.5,7.9c-0.9,30.9-5.2,61.1-8.3,92.8
		c-33.3-1.5-66.1-2.9-100-4.4c1.2-35.7,3.9-70,12.8-104.6c12.3,0.7,24.4,1.5,37.5,2.3c2.9-11.1,5.6-21.6,8.6-33.3
		C82.8,510.4,77.4,509.4,70.9,508.2z M69.3,626.9c2.6-20.9,4.9-40.1,7.4-60c-6.1-0.9-11.5-1.6-17.5-2.5c-3.1,21.4-5.6,41.6-4.2,62.5
		C60.4,626.9,64.9,626.9,69.3,626.9z M98.5,566.6c-3.7,21.3-5,41.4-4.4,62.4c5,0,9.4,0,14.1,0c2.6-20.1,5-39.7,7.6-59.9
		C110.2,568.3,105,567.5,98.5,566.6z"/>
	<path class="st0" d="M39.9,774.5c6.3,1.5,10.8,2.3,15.2,3.6c29.4,8.6,58.7,17.5,88.2,25.6c8.5,2.3,13.2,6.6,14.9,15
		c1,4.8,2.6,9.5,4.2,15.5c-22.2,12.4-44.2,24.7-67.2,37.6c8.6,17.9,16.9,35.2,25.5,53.2c14.6-6.8,28.3-13.3,42.9-20.1
		c3.2,6.7,5.8,12.3,8.8,18.6c-13.5,7.1-26.3,13.9-40.1,21.2c12.5,17.4,24.2,33.8,36.7,51.2c14.4-8.9,28.1-17.3,42.9-26.5
		c19.3,22.5,38.3,44.6,57.9,67.5c-14.6,16.5-28.4,32-42.9,48.4C130.5,1002.2,68.8,899.6,39.9,774.5z M204.5,995.6
		c-5.3,3.9-8.6,6.1-11.6,8.6c-7,6-7.4,7.7-1.6,14.6c8.7,10.4,17.9,20.5,26.9,30.6c1.9,2.2,4.3,4,7.1,6.6c5.2-7.6,10-14.5,16-23.2
		C228.8,1020.2,216.8,1008,204.5,995.6z M86.5,851.9c21.3-8.9,48.1-24,51.9-29.5c-21.2-4.5-41.9-10.1-64.6-13.4
		C78.2,824,82.2,837.6,86.5,851.9z"/>
	<path class="st0" d="M421.9,1173.3c15.9,6.2,30.6,11.9,46.4,18.1c3.8-15.1,7.3-29.2,10.9-43.3c7.6,0,14.7,0,22.6,0
		c-2.9,15.6-5.6,30.1-8.4,45.6c15.9,2.8,30.5,5.3,46.1,8c2-14.6,3.8-28.3,5.8-42.8c6.8,0,13.3,0,21.2,0c-1.2,22-5.4,43.3-8.4,66
		c-10.6-0.5-20.8-0.6-31-1.7c-62.6-6.7-121.5-25.9-177.6-54c-31.6-15.8-61.8-34.1-90.2-55.1c-2.6-1.9-5.1-4.1-7.4-6
		c0.3-1.3,0.3-2,0.7-2.5c10.2-13.5,10.2-13.5,25.2-5.9c1.7,0.9,3.6,1.5,6.4,2.7c2.1-17.7-1.2-34.3-1.9-50.9
		c-0.7-16.5-2.1-32.9-1.3-50.5c6,5,12.2,9.8,17.9,15.2c1.6,1.6,1.9,4.8,2.2,7.4c2.6,26.2,5,52.3,7.6,78.5c0.4,3.8,1.2,7.6,3.8,11.9
		c13.3-19,26.6-37.9,40.5-57.8c5.5,2.7,10.6,5.3,17,8.4c-13.2,23.3-25.8,45.8-39.1,69.4c22.2,11.2,43.5,22,65.8,33.2
		c7.4-14,14.4-27.4,21.6-41.3c6.9,2,13.2,3.8,21,6.1C433.2,1146.1,427.7,1159.3,421.9,1173.3z"/>
	<path class="st1" d="M5851.6,416.2c-20.2,0-39.7,0-59.9,0c0-80.9,0-161.4,0-241.9c6.8-2,42.8-2.6,59.2-0.9
		C5852.9,180.4,5853.6,401.1,5851.6,416.2z"/>
	<path class="st0" d="M1080.2,444.4c24.1,45.2,40.7,91.9,43,144c-29.7,5.1-58,12.3-88.1,16.7c-1-7.2-1.8-13.2-2.7-19.9
		c23.9-5.4,46.8-10.6,69.5-15.7c0.1-16.2-22-84.8-33.3-103.8c-6.5,2.5-13.2,5.2-20.8,8.2c6.2,24,17.9,45.5,24.4,69.9
		c-5.8,1.6-11.4,3.2-16.7,4.6c-5.5-6.7-31.9-76.2-33.2-87.6c9.3-2.7,18.7-5.6,28.3-8.3C1060.2,449.8,1069.8,447.2,1080.2,444.4z"/>
	<path class="st0" d="M56.3,731.7c8.5-0.5,15.9-1,24.1-1.5c1.2-18.4-3.2-35.6-3.3-53.6c7.7,0,14.8,0,23.1,0c0,23.5,0,46.6,0,70.3
		c-19.3,6.3-39.5,9.3-61.2,11.8c-4.5-29.9-7.2-59.4-10.7-90.1c8.4,0.8,15.5,1.5,23.7,2.3C53.4,690.8,54.8,710.2,56.3,731.7z"/>
	<path class="st0" d="M5519.4,553.1c-0.1,17.2-14.2,31-31.3,30.7c-16.5-0.3-30-14.3-30-31.1c0.1-16.9,13.6-30.4,30.3-30.5
		C5505.9,522.2,5519.5,535.8,5519.4,553.1z"/>
	<path class="st0" d="M5418.6,522.2c17.1-0.1,31,13.9,30.8,31c-0.2,16.6-13.9,30.4-30.5,30.6c-16.7,0.2-31-14.3-30.8-31.3
		C5388.3,535.9,5401.9,522.3,5418.6,522.2z"/>
	<path class="st0" d="M6995.2,552.9c0-17.3,12.9-30.6,29.8-30.7c17.6-0.1,30.9,13,30.9,30.6c0,17.4-13.8,31.2-30.9,31
		C7008.4,583.6,6995.2,570,6995.2,552.9z"/>
	<path class="st0" d="M6925.2,552.6c0.1-17.2,13.3-30.4,30.4-30.4c17.4,0,30.6,13.7,30.3,31.4c-0.3,16.8-14.4,30.5-30.9,30.2
		C6938.4,583.5,6925.1,569.6,6925.2,552.6z"/>
	<path class="st0" d="M8680.1,583c-17.2,0.2-30.5-12.8-30.8-29.8c-0.3-17.7,12.8-31.3,30.3-31.3c17.6-0.1,31,13.3,30.9,30.8
		C8710.3,569.8,8697.2,582.9,8680.1,583z"/>
	<path class="st0" d="M589.2,1125.8c7.4-0.4,13.5-0.8,21.1-1.2c-1.3,34.3-2.5,67-3.7,100.5c-6.8,0-12.9,0-20.5,0
		C587.1,1192,588.2,1159.3,589.2,1125.8z"/>
	<path class="st0" d="M796.9,1243.9c-3.3-7.5-6.1-13.8-9.3-21.2c10-3.8,19.2-7.3,29.6-11.3c3.7,6.3,7.3,12.5,11.4,19.5
		C818.8,1237.1,808,1239.2,796.9,1243.9z"/>
	<path class="st0" d="M45.6,883.6c5.6,11.1,10.4,20.9,15.7,31.6c-6.3,3-11.8,5.7-18.3,8.8c-5.4-10.8-10.3-20.8-15.8-31.9
		C33.4,889.2,39,886.6,45.6,883.6z"/>
	<path class="st0" d="M47.3,930.9c6.3-3,11.2-5.3,17.1-8.1c7.7,9.5,12.9,20,19.5,31c-5.9,3.2-11,5.9-16.9,9.2
		C60.4,952.3,54.3,942.2,47.3,930.9z"/>
	<path class="st0" d="M1119.8,491.9c7.7-0.4,13.7-0.8,20.5-1.1c3.4,10.6,6.5,20.3,9.7,30.5c-6.1,4.1-12.6,3.2-19.8,2.8
		C1127,514,1123.7,503.9,1119.8,491.9z"/>
	<path class="st0" d="M413,724.5c-6.1,5.3-12.4,10.1-19.9,2.7c-5.6,2-8.2,10.2-15.8,6.7c0.3-0.8,0.3-1.9,0.8-2.6
		c6.3-7.1,10.2-15.4,12.7-24.6c1.9-6.8,4.8-13.2,14.1-15.7c1.7,3.1,4.5,6.2,5.1,9.7c1.3,8.1,6.5,11,13.5,12.5
		c8.7,1.9,16.4-0.8,23.9-4.8c3.4-1.8,3.2-4.7,2.9-7.8c-0.8-7.6-1.9-15.2-2.6-22.8c-0.3-3.8-0.1-7.7-0.1-11.5
		c0.9-0.1,1.7-0.2,2.6-0.3c1.3,5.4,2.7,10.9,4,16.3c1.9,8.1,4,16.1,5.5,24.3c1.1,5.6,4.3,9.3,9.4,10.5c7,1.7,14.3,3.5,21.4,3.3
		c8.8-0.3,17.5-2.7,26.9-4.4c-3.2-6.3-8.9-4.4-12.5-6.8c-1.7-8.7-0.1-12,7.5-14.3c9.1-2.9,18.3-3.4,27.6-0.8
		c6.5,1.8,8.1,4.9,5.7,11.1c-1.6,3.9-3.7,7.6-6,12.2c6.5,2.7,12.1,1.3,18.2-0.1c2.2-7.4,1.8-14.8-1.2-21.4
		c-3.5-7.8-1.2-13.3,5.7-19.2c2.6,12.8,7.5,24.5,4.8,37.3c-3.4,15.7-17,23.3-31.8,17c-6.3-2.7-11.8-2.7-18.2-1.2
		c-14.3,3.2-28.5,6.2-43.4,2.8c-6.9-1.6-12.6-4-16.3-10.2c-0.8-1.4-1.9-2.5-2.9-3.8C428.8,733.5,428.3,729.3,413,724.5z
		 M408.9,711.4c-3.9-2.5-6-4.4-8.4-4.9c-1-0.2-3.5,2.5-3.9,4.2c-0.7,3.4,1.2,6.1,4.8,5.8C403.5,716.3,405.3,714,408.9,711.4z"/>
	<path class="st0" d="M719.9,573.2c0.7,6.2,1.5,12.1,2.1,18.1c0.3,3,0.3,6,0.5,9c1.7,17.1,10.7,23.1,28.5,17.9
		c-0.5-3.3-1.6-6.8-1.6-10.2c0.1-5.2,0-10.8,1.7-15.5c3.8-10.4,12.1-14,22.4-10.1c5.1,1.9,9.8,5,15.8,8.1c-5.6,4.3-9.9,5.4-14.9,3
		c-0.9-0.4-1.8-0.8-2.8-1.1c-8.2-3-12.3-1.9-14,3.7c-2.1,7.1,1.6,14.6,8.1,16.9c4.7,1.7,9.1,1.1,13.6-0.8c3.4-1.4,6.8-2.9,10.3-3.7
		c3.3-0.8,6,0.6,6.7,4.2c0.7,3.3-0.1,6.3-3.4,7.5c-13.1,4.7-26.1,9.9-39.6,13.3c-12.8,3.3-25.3,1.6-34.8-9.3
		c-1.1-1.2-2.4-2.3-3.7-3.3c-0.5-0.4-1.2-0.5-2.1-0.9c-1.2,0.8-2.7,1.6-3.9,2.7c-9.8,9-21,12.3-34.1,8.7c-2.7-0.7-5.9,0.1-8.8,0.3
		c-3.3,0.2-6.8,1.2-9.9,0.6c-5.3-1.2-8.8,0.7-12.2,4.5c-4.3,4.8-9.4,8.2-16.4,5.1c0.3-0.8,0.4-1.7,0.8-1.9
		c12.4-5.7,18.6-15.3,20-28.8c0.6-5.6,1.9-12.4,8-13.9c6.7-1.7,9.2,5.3,12.5,9.6c11.4,14.7,29.7,16.9,43.4,4.6
		c1.8-1.6,2.5-5.2,2.4-7.8c-0.5-8.3-1.7-16.5-2.5-24.8C711.6,573.7,714,571.9,719.9,573.2z M654.9,610.8c-0.3,4-1.6,7.9,3.8,7.7
		c1.3,0,3.4-2.2,3.4-3.5C662.3,610.6,659.5,609.6,654.9,610.8z"/>
	<path class="st0" d="M648.6,694.8c2.9,4.7,5.8,9.3,9.4,15.1c0.3-13.1-6.1-24.7-1.6-37.2c0.7,1.5,1.6,3,2,4.6
		c2.5,10.7,4.9,21.4,7.1,32.1c2.9,14.3,10.8,14.9,19.3,6.7c0.5-0.4,1.2-0.6,2.9-1.5c1.4,2.4,3,5.3,4.3,7.5
		c6.5-1.9,10.1-6.3,15.8-4.2c1.4,0.5,4.4-3.1,6.6-4.8c12,7.5,12,7.5,20,8.2c3.3-3.7,1.1-7.5-0.5-10.9c-1.4-3-3.2-5.9-5.5-8.2
		c-4.3-4.4-4.4-8.6,0-14.1c10.2,8.4,18.8,17.4,18.9,31.8c0.1,10.6-5.1,15.6-15.7,13.7c-6.5-1.2-12.3-1.2-18.2,2.1
		c-1.8,1-4.8,1.2-6.7,0.5c-3.9-1.4-7.5-2.5-11.5-0.6c-0.3,0.1-0.7,0.2-1,0.1c-6.6-3.2-12.8-2.3-19.5,0.5c-4.3,1.8-7.6-1.7-9.3-5.7
		c-2.3-5.4-4.1-11-6.4-17.5c-0.3,3.7-0.3,6.5-0.7,9.3c-2.5,16.4-23.6,28.7-39.2,22.8c-5.6-2.1-9.7-6.1-11.8-11.5
		c-5-12.5-4.4-24.5,5.2-35.7c0,2,0.1,4.1,0,6.1c-0.1,4-0.8,8-0.5,11.9c0.8,9.9,5.6,14.3,15.7,14.1c4.9-0.1,10-1.1,14.6-2.7
		c7.3-2.5,9.2-7.4,6.8-15.1c-0.7-2.2-2-4.3-2.4-6.5c-0.6-3.4-0.6-6.8-0.8-10.2C646.6,695.3,647.6,695.1,648.6,694.8z"/>
	<path class="st0" d="M372.8,631.8c5-4.6,9.1-8,12.8-11.7c6.5-6.4,11.6-13.7,13.3-22.9c0.3-1.9,1-3.9,1.9-5.6
		c3.4-6.5,11.9-8.3,15.9-1.1c1.8,3.2,3.8,6.3,4.9,9.8c1.5,4.4,3.9,6.4,8.7,6.5c10.7,0.3,21.2,0.3,32.7-3.3
		c-0.6-4.6-0.9-9.1-1.7-13.4c-1.4-7.2-3.6-14.2-4.7-21.4c-0.6-4.1,0.3-8.4,0.5-13.9c5.6,2.8,7.4,6.8,8.3,10.6
		c2.5,10.3,5.4,20.7,6.3,31.1c1.3,15.2-7.1,23.6-22.4,24.2c-5.6,0.2-11.3,0-16.9-0.6c-6.3-0.6-12.3-2.1-17.1,4.2
		c-2.6,3.3-6.9,1.9-10.2,0.2c-5.2-2.6-9.4-1.6-13.5,2.2C386.7,631.2,380.9,633.3,372.8,631.8z M412.3,609.6c0.1-3.8,2.2-7.7-3.2-8.9
		c-2.6-0.6-4.4,0.5-4.4,3.6C404.6,608.8,406.5,610.9,412.3,609.6z"/>
	<path class="st0" d="M543.4,614.9c-6.6,2.8-12.9,5.8-19.4,8.2c-7.6,2.8-15.4,4.2-23.4,1.4c-7.3-2.5-13.3-6.8-15.7-14.3
		c-5.7-18.2-8.3-36.9-9.7-55.9c-0.1-1.5,0.6-3.1,2.7-5.3c1.6,3.3,3.8,6.4,4.6,9.9c2.3,9.4,3.8,18.9,6,28.3
		c1.4,6.1,2.6,12.5,5.2,18.1c4.6,9.9,13,13.3,23.2,9.3c5.8-2.2,11.1-5.9,16.1-9.7c6.1-4.6,11.4-10.3,17.4-15
		c10.2-8,14.4-6.7,18.4,5.9c1.3,4.1,2.2,8.4,2.4,12.7c0.7,13.3-6.4,17.8-18.2,11.8C549.7,618.7,546.6,616.8,543.4,614.9z
		 M557.8,598.3c-2.3,3.6-4.5,5.4-4.7,7.5c-0.4,3.4,2,5.6,5.5,5.4c3.2-0.2,4.9-2.6,4.2-5.5C562.2,603.6,560.2,601.8,557.8,598.3z"/>
	<path class="st0" d="M756.2,747c1.5-0.6,3-1.2,4.6-1.8c13.8-5.3,20.7-15.4,19.7-30c-0.7-9.8-2.8-19.6-4.8-29.3
		c-1-5.1-1.8-9.6,3.7-13.8c6.3,18.1,12.4,35.6,8.9,54.6c-2,10.5-5.6,20.3-17.9,22.4c-4.7,0.8-9.6,0-14.5-0.1
		C756,748.3,756.1,747.6,756.2,747z"/>
	<path class="st0" d="M795,669.5c3.2,6.8,5.9,12.4,8.5,18.1c0.4,0.9,0.9,2.1,0.6,2.8c-4.3,10,1.4,19.5,1.1,29.3
		c-0.2,6.9-0.6,13.7-0.9,20.6c-0.7,0.1-1.3,0.2-2,0.3c-0.6-1.6-1.5-3.1-1.8-4.7c-3.2-17.2-6.3-34.5-9.5-51.8
		C790,679.3,790.3,675,795,669.5z"/>
	<path class="st0" d="M382.1,692.1c0-6.7,0-12.4,0-19.2c18-8.8,36.9-17.9,56.8-26.1c1.3,6.4-2.1,8.3-5.8,9.9
		c-8.5,3.7-17,7.5-25.5,11.2c-3.9,1.7-7.9,3.6-11.8,5.2c-4.7,1.9-7.9,4.7-7.3,10.4C388.9,688,387.2,691.2,382.1,692.1z"/>
	<path class="st0" d="M391.4,567.1c17.8-8.2,36.7-16.9,56.3-25.8c1.8,6.5-1.6,8.8-5.6,10.5c-12.8,5.6-25.7,11-38.5,16.5
		c-1.5,0.6-3,1.2-4.4,1.8c-2.7,5.4,1.3,13.6-7.8,16.4C391.4,580.3,391.4,574.4,391.4,567.1z"/>
	<path class="st0" d="M734.5,675c26.2,10,41.5,28,41.3,49.3c-2.3-2.8-4.1-4.5-5.4-6.5c-6.7-11.3-15.3-20.7-26.6-27.6
		C737.1,686.1,736.5,684.4,734.5,675z"/>
	<path class="st0" d="M541.7,742.4c6.2,3.2,12.4,2.7,17.8-2.9c3.8,1.8,7.3,3.5,11.8,5.7c-2.4,4.1-4.5,7.6-6.9,11.5
		c-6.7-1.8-13.4-8.3-18.2,1.1C534.3,752.6,533.9,751,541.7,742.4z"/>
	<path class="st0" d="M560,646.1c-1,1.7-1.7,3.6-3,4.7c-4.8,4.1-37.6,19.5-43.9,20.8c-1.1-3.8,0.2-6.5,3.6-8
		c13.6-6.1,27.2-12.2,40.9-18.1C558,645.2,558.8,645.7,560,646.1z"/>
	<path class="st0" d="M549.1,548.2c-1,1.7-1.7,4.1-3.2,4.9c-13.8,7.2-27.8,14.1-42.2,21.4c-2.8-6.1-0.2-8.9,4.2-10.8
		c13.1-5.8,26.1-11.6,39.2-17.3C547.8,546.9,548.5,547.6,549.1,548.2z"/>
	<path class="st0" d="M746.7,567.2c1.6-10.3,16.9-17.9,34.1-16.9c1,3.4,1.2,6.2-3.3,7.5C767.4,560.9,757.3,564,746.7,567.2z"/>
	<path class="st0" d="M682.3,558.6c0.3-4.2,0-6.1,0.6-6.6c9.3-6.1,18.9-11.5,31.8-15.7c-1.5,4.1-1.7,7.3-3.2,8.1
		C702.6,549.2,693.4,553.3,682.3,558.6z"/>
	<path class="st0" d="M664.9,554.8c2.1,3.5,2.5,6.1-1.3,7.8c-9,4.1-18,8.3-27.5,12.7C637.7,567.3,643.3,563.4,664.9,554.8z"/>
	<path class="st0" d="M722.8,552c0.5,10.9-3.2,13.5-19.2,13.8c-2.8-5.5-2.3-10.3,2.9-14.5C710.9,558,710.9,558,722.8,552z"/>
	<path class="st0" d="M642,662.5c-0.3,2.5,0.2,4.8-0.7,5.3c-8.4,5.7-17.4,10.4-28.7,14.4c1-3.4,0.9-5.8,2-6.5
		C622.9,670.6,631.4,665.6,642,662.5z"/>
	<path class="st0" d="M704.5,658.9c-3.1-0.8-5.5-1.4-9.8-2.5c3.1-2.9,4.8-5.4,7.1-6.6c5.2-2.7,10.3,1,9.5,7
		c-0.7,5.8-4.5,9.4-10.9,12.4C701.9,665.4,703,662.6,704.5,658.9z"/>
	<path class="st0" d="M760.9,674.7c1.5-3.9,2.5-6.6,3.7-9.7c-3-0.6-5.4-1.1-8.3-1.7c1.5-5.8,5.1-8.3,10.1-7.6
		c1.8,0.3,3.9,3.4,4.4,5.5C772.2,667.4,769.6,670.7,760.9,674.7z"/>
	<path class="st0" d="M490.4,668.6c-2.7-0.9-5.1-1.8-7.8-2.7c0.2-1,0.1-2.2,0.6-2.7c4.8-4.7,8.8-5.5,12-2.5c3,2.9,2.9,8.5-0.7,12.6
		c-1.8,2.1-4.3,3.6-8,4.2C487.8,674.8,489,671.9,490.4,668.6z"/>
	<path class="st0" d="M763.3,764.4c4-6.9,12.9-11.9,23.1-13.6C785.5,756.5,776.1,762.2,763.3,764.4z"/>
	<path class="st0" d="M625.5,695.9c13.2,4.5,14,6.4,7.8,16.5c-2.6-0.9-5.4-1.8-8.8-2.9C624.8,705.3,625.1,701.1,625.5,695.9z"/>
	<path class="st0" d="M709.2,670.7c13.4,3.6,13.6,4,8.6,14.3c-3.6-1.7-7.3-3.3-11.7-5.3C707.2,676.5,708.1,673.8,709.2,670.7z"/>
	<path class="st0" d="M684.6,657c0.4,1.8,1.6,4.6,1,5c-5,3.3-10.3,6.2-16.1,9.6C669,663.4,670.4,662.2,684.6,657z"/>
	<path class="st0" d="M423.9,416.3c8.6-1.1,6.4,4.7,9.5,9C426.2,424.1,425.7,420.4,423.9,416.3z"/>
	<path class="st0" d="M446.4,481.5c2.8,4,4.7,6.6,7,9.8C445.7,491.2,445.7,491.2,446.4,481.5z"/>
	<path class="st0" d="M439.3,457c-1.6-2.7-3.2-5.5-5.2-9c7.3,0.6,7.3,0.6,7.3,8.3C440.7,456.5,440,456.8,439.3,457z"/>
	<path class="st0" d="M411.5,382.8c7.1,0.4,7,4.3,6.8,9.2C412.5,391.6,412.4,387.6,411.5,382.8z"/>
	<path class="st0" d="M388.2,326.9c1.5,2.8,3,5.5,5.3,9.8c-7.6-1.2-7.8-4.9-7.9-8.5C386.4,327.8,387.3,327.3,388.2,326.9z"/>
	<path class="st0" d="M359.5,279.2c4.5,3.5,4.5,3.5,4.1,8.8C359.2,284.6,359.2,284.6,359.5,279.2z"/>
	<path class="st0" d="M404.4,366.2c-1.6-2.6-3.2-5.2-5.2-8.5C406.1,358.5,406.1,358.5,404.4,366.2z"/>
	<path class="st0" d="M373.7,303.1c4.2,1.2,5.4,4,3.4,10c-2.3-3.5-3.9-6-5.5-8.5C372.3,304.1,373,303.6,373.7,303.1z"/>
	<path class="st0" d="M825.9,304.4c3.5,5.7,0.3,7.7-4.3,9.7C819.4,309.2,821.8,306.8,825.9,304.4z"/>
	<path class="st0" d="M752.2,460.7c1.1,5-0.6,7.8-5.5,9.5C744.7,464.6,747.1,462.2,752.2,460.7z"/>
	<path class="st0" d="M813.9,324.9c-0.2,6.6-0.2,6.6-5.5,9.7C807,329.9,808.7,327.1,813.9,324.9z"/>
	<path class="st0" d="M779.5,384.5c2.8-3.9,4.6-6.4,7.2-10.1C787.7,382.1,787.7,382.1,779.5,384.5z"/>
	<path class="st0" d="M800.6,349c1.7,6.3,0.8,10-7.3,9.2C796.4,354.3,798.5,351.7,800.6,349z"/>
	<path class="st0" d="M740.5,498.2c0.4,5.7-1.2,8.5-7.1,9.2C734,502.9,734.3,499.3,740.5,498.2z"/>
	<path class="st0" d="M761.7,432.4c1,4.8-0.6,7.4-6,8.5C755.3,436.1,756.8,433.4,761.7,432.4z"/>
	<path class="st0" d="M766.7,413.3c2.3-4.4,3.6-7,5.6-11C774.2,409.5,774.2,409.5,766.7,413.3z"/>
	<path class="st0" d="M683.7,837.1c-6.9-0.6-8.9-3.1-8.8-10.1c0.2-9.4,4-14.8,11.3-15.2C685.3,820.1,684.5,828.2,683.7,837.1z"/>
	<path class="st0" d="M680.2,858.7c-0.8,8.2-1.6,16.4-2.4,24.5c-6.6-0.8-8.5-3.2-8.5-10.2C669.4,864.2,673,859.2,680.2,858.7z"/>
	<path class="st0" d="M680.4,898.1c-0.8,9.2-1.6,17.3-2.3,25.4c-6.7,2.2-7.5-2.2-8-6.7C668.7,906.3,671.8,900.3,680.4,898.1z"/>
	<path class="st0" d="M495.5,917.2c0-8.5,0-17,0-25.6c6.4-0.9,9,1.6,10.3,10.6C507,910.7,503.8,915.7,495.5,917.2z"/>
	<path class="st0" d="M498.9,875.6c0-8.1,0-16.3,0-24.4c7.2-0.1,10,3.4,10,12.6C508.8,872.6,506.5,875.4,498.9,875.6z"/>
	<path class="st0" d="M497.2,804.9c6.7,0.2,9.2,3.2,9.6,11.9c0.4,9.1-1.5,11.9-9.6,13.1C497.2,821.5,497.2,813.2,497.2,804.9z"/>
</g>
</svg>
